<svg xmlns="http://www.w3.org/2000/svg" xmlns:xlink="http://www.w3.org/1999/xlink" contentStyleType="text/css" height="872px" preserveAspectRatio="none" style="width:623px;height:872px;background:#FFFFFF;" version="1.1" viewBox="0 0 623 872" width="623px" zoomAndPan="magnify"><defs/><g><!--cluster Netflix--><g id="cluster_Netflix"><path d="M8.5,6 L62.123,6 A3.75,3.75 0 0 1 64.623,8.5 L71.623,28.2969 L613.5,28.2969 A2.5,2.5 0 0 1 616,30.7969 L616,863.25 A2.5,2.5 0 0 1 613.5,865.75 L8.5,865.75 A2.5,2.5 0 0 1 6,863.25 L6,8.5 A2.5,2.5 0 0 1 8.5,6 " fill="none" style="stroke:#000000;stroke-width:1.5;"/><line style="stroke:#000000;stroke-width:1.5;" x1="6" x2="71.623" y1="28.2969" y2="28.2969"/><text fill="#000000" font-family="sans-serif" font-size="14" font-weight="bold" lengthAdjust="spacing" textLength="52.623" x="10" y="20.9951">Netflix</text></g><!--class Usuario--><g id="elem_Usuario"><rect codeLine="2" fill="#F1F1F1" height="80.5938" id="Usuario" rx="2.5" ry="2.5" style="stroke:#181818;stroke-width:0.5;" width="90.3193" x="120.84" y="41"/><ellipse cx="138.1419" cy="57" fill="#ADD1B2" rx="11" ry="11" style="stroke:#181818;stroke-width:1.0;"/><path d="M141.1106,62.6406 Q140.5325,62.9375 139.8919,63.0781 Q139.2512,63.2344 138.5481,63.2344 Q136.0481,63.2344 134.72,61.5938 Q133.4075,59.9375 133.4075,56.8125 Q133.4075,53.6875 134.72,52.0313 Q136.0481,50.375 138.5481,50.375 Q139.2512,50.375 139.8919,50.5313 Q140.5481,50.6875 141.1106,50.9844 L141.1106,53.7031 Q140.4856,53.125 139.8919,52.8594 Q139.2981,52.5781 138.6731,52.5781 Q137.3294,52.5781 136.6419,53.6563 Q135.9544,54.7188 135.9544,56.8125 Q135.9544,58.9063 136.6419,59.9844 Q137.3294,61.0469 138.6731,61.0469 Q139.2981,61.0469 139.8919,60.7813 Q140.4856,60.5 141.1106,59.9219 L141.1106,62.6406 Z " fill="#000000"/><text fill="#000000" font-family="sans-serif" font-size="14" lengthAdjust="spacing" textLength="53.2041" x="152.6534" y="61.8467">Usuario</text><line style="stroke:#181818;stroke-width:0.5;" x1="121.84" x2="210.1593" y1="73" y2="73"/><text fill="#000000" font-family="sans-serif" font-size="14" lengthAdjust="spacing" textLength="44.9531" x="126.84" y="89.9951">correo</text><text fill="#000000" font-family="sans-serif" font-size="14" lengthAdjust="spacing" textLength="78.3193" x="126.84" y="106.292">contrasena</text><line style="stroke:#181818;stroke-width:0.5;" x1="121.84" x2="210.1593" y1="113.5938" y2="113.5938"/></g><!--class Suscripcion--><g id="elem_Suscripcion"><rect codeLine="7" fill="#F1F1F1" height="96.8906" id="Suscripcion" rx="2.5" ry="2.5" style="stroke:#181818;stroke-width:0.5;" width="127.5068" x="40.25" y="198.59"/><ellipse cx="62.0892" cy="214.59" fill="#ADD1B2" rx="11" ry="11" style="stroke:#181818;stroke-width:1.0;"/><path d="M65.058,220.2306 Q64.4798,220.5275 63.8392,220.6681 Q63.1986,220.8244 62.4955,220.8244 Q59.9955,220.8244 58.6673,219.1838 Q57.3548,217.5275 57.3548,214.4025 Q57.3548,211.2775 58.6673,209.6213 Q59.9955,207.965 62.4955,207.965 Q63.1986,207.965 63.8392,208.1213 Q64.4955,208.2775 65.058,208.5744 L65.058,211.2931 Q64.433,210.715 63.8392,210.4494 Q63.2455,210.1681 62.6205,210.1681 Q61.2767,210.1681 60.5892,211.2463 Q59.9017,212.3088 59.9017,214.4025 Q59.9017,216.4963 60.5892,217.5744 Q61.2767,218.6369 62.6205,218.6369 Q63.2455,218.6369 63.8392,218.3713 Q64.433,218.09 65.058,217.5119 L65.058,220.2306 Z " fill="#000000"/><text fill="#000000" font-family="sans-serif" font-size="14" lengthAdjust="spacing" textLength="80.3086" x="77.609" y="219.4367">Suscripcion</text><line style="stroke:#181818;stroke-width:0.5;" x1="41.25" x2="166.7568" y1="230.59" y2="230.59"/><text fill="#000000" font-family="sans-serif" font-size="14" lengthAdjust="spacing" textLength="37.6592" x="46.25" y="247.5851">coste</text><text fill="#000000" font-family="sans-serif" font-size="14" lengthAdjust="spacing" textLength="50.4082" x="46.25" y="263.882">calidad</text><text fill="#000000" font-family="sans-serif" font-size="14" lengthAdjust="spacing" textLength="115.5068" x="46.25" y="280.1789">numDispositivos</text><line style="stroke:#181818;stroke-width:0.5;" x1="41.25" x2="166.7568" y1="287.4806" y2="287.4806"/></g><!--class Perfil--><g id="elem_Perfil"><rect codeLine="13" fill="#F1F1F1" height="80.5938" id="Perfil" rx="2.5" ry="2.5" style="stroke:#181818;stroke-width:0.5;" width="119.0576" x="202.47" y="206.74"/><ellipse cx="240.6621" cy="222.74" fill="#ADD1B2" rx="11" ry="11" style="stroke:#181818;stroke-width:1.0;"/><path d="M243.6309,228.3806 Q243.0528,228.6775 242.4121,228.8181 Q241.7715,228.9744 241.0684,228.9744 Q238.5684,228.9744 237.2403,227.3338 Q235.9278,225.6775 235.9278,222.5525 Q235.9278,219.4275 237.2403,217.7713 Q238.5684,216.115 241.0684,216.115 Q241.7715,216.115 242.4121,216.2713 Q243.0684,216.4275 243.6309,216.7244 L243.6309,219.4431 Q243.0059,218.865 242.4121,218.5994 Q241.8184,218.3181 241.1934,218.3181 Q239.8496,218.3181 239.1621,219.3963 Q238.4746,220.4588 238.4746,222.5525 Q238.4746,224.6463 239.1621,225.7244 Q239.8496,226.7869 241.1934,226.7869 Q241.8184,226.7869 242.4121,226.5213 Q243.0059,226.24 243.6309,225.6619 L243.6309,228.3806 Z " fill="#000000"/><text fill="#000000" font-family="sans-serif" font-size="14" lengthAdjust="spacing" textLength="35.5195" x="259.8159" y="227.5867">Perfil</text><line style="stroke:#181818;stroke-width:0.5;" x1="203.47" x2="320.5276" y1="238.74" y2="238.74"/><text fill="#000000" font-family="sans-serif" font-size="14" lengthAdjust="spacing" textLength="26.8311" x="208.47" y="255.7351">tipo</text><text fill="#000000" font-family="sans-serif" font-size="14" lengthAdjust="spacing" textLength="107.0576" x="208.47" y="272.032">controlParental</text><line style="stroke:#181818;stroke-width:0.5;" x1="203.47" x2="320.5276" y1="279.3338" y2="279.3338"/></g><!--class Configuracion--><g id="elem_Configuracion"><rect codeLine="18" fill="#F1F1F1" height="113.1875" id="Configuracion" rx="2.5" ry="2.5" style="stroke:#181818;stroke-width:0.5;" width="148.8076" x="21.6" y="372.48"/><ellipse cx="45.4449" cy="388.48" fill="#ADD1B2" rx="11" ry="11" style="stroke:#181818;stroke-width:1.0;"/><path d="M48.4136,394.1206 Q47.8355,394.4175 47.1949,394.5581 Q46.5542,394.7144 45.8511,394.7144 Q43.3511,394.7144 42.023,393.0738 Q40.7105,391.4175 40.7105,388.2925 Q40.7105,385.1675 42.023,383.5113 Q43.3511,381.855 45.8511,381.855 Q46.5542,381.855 47.1949,382.0113 Q47.8511,382.1675 48.4136,382.4644 L48.4136,385.1831 Q47.7886,384.605 47.1949,384.3394 Q46.6011,384.0581 45.9761,384.0581 Q44.6324,384.0581 43.9449,385.1363 Q43.2574,386.1988 43.2574,388.2925 Q43.2574,390.3863 43.9449,391.4644 Q44.6324,392.5269 45.9761,392.5269 Q46.6011,392.5269 47.1949,392.2613 Q47.7886,391.98 48.4136,391.4019 L48.4136,394.1206 Z " fill="#000000"/><text fill="#000000" font-family="sans-serif" font-size="14" lengthAdjust="spacing" textLength="97.1523" x="61.4104" y="393.3267">Configuracion</text><line style="stroke:#181818;stroke-width:0.5;" x1="22.6" x2="169.4076" y1="404.48" y2="404.48"/><text fill="#000000" font-family="sans-serif" font-size="14" lengthAdjust="spacing" textLength="47.4482" x="27.6" y="421.4751">idioma</text><text fill="#000000" font-family="sans-serif" font-size="14" lengthAdjust="spacing" textLength="96.8447" x="27.6" y="437.772">notificaciones</text><text fill="#000000" font-family="sans-serif" font-size="14" lengthAdjust="spacing" textLength="136.8076" x="27.6" y="454.0689">subtitulosActivados</text><text fill="#000000" font-family="sans-serif" font-size="14" lengthAdjust="spacing" textLength="117.585" x="27.6" y="470.3657">idiomaSubtitulos</text><line style="stroke:#181818;stroke-width:0.5;" x1="22.6" x2="169.4076" y1="477.6675" y2="477.6675"/></g><!--class Contenido--><g id="elem_Contenido"><rect codeLine="25" fill="#F1F1F1" height="96.8906" id="Contenido" rx="2.5" ry="2.5" style="stroke:#181818;stroke-width:0.5;" width="103.5313" x="235.23" y="562.67"/><ellipse cx="250.23" cy="578.67" fill="#ADD1B2" rx="11" ry="11" style="stroke:#181818;stroke-width:1.0;"/><path d="M253.1988,584.3106 Q252.6206,584.6075 251.98,584.7481 Q251.3394,584.9044 250.6363,584.9044 Q248.1363,584.9044 246.8081,583.2638 Q245.4956,581.6075 245.4956,578.4825 Q245.4956,575.3575 246.8081,573.7013 Q248.1363,572.045 250.6363,572.045 Q251.3394,572.045 251.98,572.2013 Q252.6363,572.3575 253.1988,572.6544 L253.1988,575.3731 Q252.5738,574.795 251.98,574.5294 Q251.3863,574.2481 250.7613,574.2481 Q249.4175,574.2481 248.73,575.3263 Q248.0425,576.3888 248.0425,578.4825 Q248.0425,580.5763 248.73,581.6544 Q249.4175,582.7169 250.7613,582.7169 Q251.3863,582.7169 251.98,582.4513 Q252.5738,582.17 253.1988,581.5919 L253.1988,584.3106 Z " fill="#000000"/><text fill="#000000" font-family="sans-serif" font-size="14" lengthAdjust="spacing" textLength="71.5313" x="264.23" y="583.5167">Contenido</text><line style="stroke:#181818;stroke-width:0.5;" x1="236.23" x2="337.7613" y1="594.67" y2="594.67"/><text fill="#000000" font-family="sans-serif" font-size="14" lengthAdjust="spacing" textLength="26.8311" x="241.23" y="611.6651">tipo</text><text fill="#000000" font-family="sans-serif" font-size="14" lengthAdjust="spacing" textLength="58.5908" x="241.23" y="627.962">episodio</text><text fill="#000000" font-family="sans-serif" font-size="14" lengthAdjust="spacing" textLength="61.1201" x="241.23" y="644.2589">duracion</text><line style="stroke:#181818;stroke-width:0.5;" x1="236.23" x2="337.7613" y1="651.5606" y2="651.5606"/></g><!--class Categoria--><g id="elem_Categoria"><rect codeLine="31" fill="#F1F1F1" height="113.1875" id="Categoria" rx="2.5" ry="2.5" style="stroke:#181818;stroke-width:0.5;" width="100.1338" x="181.93" y="736.56"/><ellipse cx="196.93" cy="752.56" fill="#EB937F" rx="11" ry="11" style="stroke:#181818;stroke-width:1.0;"/><path d="M201.0394,758.56 L193.3206,758.56 L193.3206,746.1694 L201.0394,746.1694 L201.0394,748.3256 L195.7738,748.3256 L195.7738,750.9975 L200.5394,750.9975 L200.5394,753.1538 L195.7738,753.1538 L195.7738,756.4038 L201.0394,756.4038 L201.0394,758.56 Z " fill="#000000"/><text fill="#000000" font-family="sans-serif" font-size="14" lengthAdjust="spacing" textLength="68.1338" x="210.93" y="757.4067">Categoria</text><line style="stroke:#181818;stroke-width:0.5;" x1="182.93" x2="281.0638" y1="768.56" y2="768.56"/><text fill="#000000" font-family="sans-serif" font-size="14" lengthAdjust="spacing" textLength="73.582" x="187.93" y="785.5551">Animacion</text><text fill="#000000" font-family="sans-serif" font-size="14" lengthAdjust="spacing" textLength="59.3359" x="187.93" y="801.852">Fantasia</text><text fill="#000000" font-family="sans-serif" font-size="14" lengthAdjust="spacing" textLength="46.2998" x="187.93" y="818.1489">Accion</text><text fill="#000000" font-family="sans-serif" font-size="14" lengthAdjust="spacing" textLength="47.332" x="187.93" y="834.4457">Drama</text><line style="stroke:#181818;stroke-width:0.5;" x1="182.93" x2="281.0638" y1="841.7475" y2="841.7475"/></g><!--class Recomendacion--><g id="elem_Recomendacion"><rect codeLine="38" fill="#F1F1F1" height="64.2969" id="Recomendacion" rx="2.5" ry="2.5" style="stroke:#181818;stroke-width:0.5;" width="144.2188" x="316.89" y="761.01"/><ellipse cx="331.89" cy="777.01" fill="#ADD1B2" rx="11" ry="11" style="stroke:#181818;stroke-width:1.0;"/><path d="M334.8588,782.6506 Q334.2806,782.9475 333.64,783.0881 Q332.9994,783.2444 332.2963,783.2444 Q329.7963,783.2444 328.4681,781.6038 Q327.1556,779.9475 327.1556,776.8225 Q327.1556,773.6975 328.4681,772.0413 Q329.7963,770.385 332.2963,770.385 Q332.9994,770.385 333.64,770.5413 Q334.2963,770.6975 334.8588,770.9944 L334.8588,773.7131 Q334.2338,773.135 333.64,772.8694 Q333.0463,772.5881 332.4213,772.5881 Q331.0775,772.5881 330.39,773.6663 Q329.7025,774.7288 329.7025,776.8225 Q329.7025,778.9163 330.39,779.9944 Q331.0775,781.0569 332.4213,781.0569 Q333.0463,781.0569 333.64,780.7913 Q334.2338,780.51 334.8588,779.9319 L334.8588,782.6506 Z " fill="#000000"/><text fill="#000000" font-family="sans-serif" font-size="14" lengthAdjust="spacing" textLength="112.2188" x="345.89" y="781.8567">Recomendacion</text><line style="stroke:#181818;stroke-width:0.5;" x1="317.89" x2="460.1088" y1="793.01" y2="793.01"/><text fill="#000000" font-family="sans-serif" font-size="14" lengthAdjust="spacing" textLength="54.332" x="322.89" y="810.0051">nombre</text><line style="stroke:#181818;stroke-width:0.5;" x1="317.89" x2="460.1088" y1="817.3069" y2="817.3069"/></g><!--class Historial--><g id="elem_Historial"><rect codeLine="42" fill="#F1F1F1" height="80.5938" id="Historial" rx="2.5" ry="2.5" style="stroke:#181818;stroke-width:0.5;" width="141.6367" x="315.18" y="388.78"/><ellipse cx="353.4706" cy="404.78" fill="#ADD1B2" rx="11" ry="11" style="stroke:#181818;stroke-width:1.0;"/><path d="M356.4393,410.4206 Q355.8612,410.7175 355.2206,410.8581 Q354.58,411.0144 353.8768,411.0144 Q351.3768,411.0144 350.0487,409.3738 Q348.7362,407.7175 348.7362,404.5925 Q348.7362,401.4675 350.0487,399.8113 Q351.3768,398.155 353.8768,398.155 Q354.58,398.155 355.2206,398.3113 Q355.8768,398.4675 356.4393,398.7644 L356.4393,401.4831 Q355.8143,400.905 355.2206,400.6394 Q354.6268,400.3581 354.0018,400.3581 Q352.6581,400.3581 351.9706,401.4363 Q351.2831,402.4988 351.2831,404.5925 Q351.2831,406.6863 351.9706,407.7644 Q352.6581,408.8269 354.0018,408.8269 Q354.6268,408.8269 355.2206,408.5613 Q355.8143,408.28 356.4393,407.7019 L356.4393,410.4206 Z " fill="#000000"/><text fill="#000000" font-family="sans-serif" font-size="14" lengthAdjust="spacing" textLength="57.8799" x="372.6463" y="409.6267">Historial</text><line style="stroke:#181818;stroke-width:0.5;" x1="316.18" x2="455.8167" y1="420.78" y2="420.78"/><text fill="#000000" font-family="sans-serif" font-size="14" lengthAdjust="spacing" textLength="129.6367" x="321.18" y="437.7751">fechaVisualizacion</text><text fill="#000000" font-family="sans-serif" font-size="14" lengthAdjust="spacing" textLength="62.3232" x="321.18" y="454.072">progreso</text><line style="stroke:#181818;stroke-width:0.5;" x1="316.18" x2="455.8167" y1="461.3738" y2="461.3738"/></g><!--class Dispositivo--><g id="elem_Dispositivo"><rect codeLine="47" fill="#F1F1F1" height="80.5938" id="Dispositivo" rx="2.5" ry="2.5" style="stroke:#181818;stroke-width:0.5;" width="108.8291" x="491.59" y="388.78"/><ellipse cx="506.59" cy="404.78" fill="#ADD1B2" rx="11" ry="11" style="stroke:#181818;stroke-width:1.0;"/><path d="M509.5588,410.4206 Q508.9806,410.7175 508.34,410.8581 Q507.6994,411.0144 506.9963,411.0144 Q504.4963,411.0144 503.1681,409.3738 Q501.8556,407.7175 501.8556,404.5925 Q501.8556,401.4675 503.1681,399.8113 Q504.4963,398.155 506.9963,398.155 Q507.6994,398.155 508.34,398.3113 Q508.9963,398.4675 509.5588,398.7644 L509.5588,401.4831 Q508.9338,400.905 508.34,400.6394 Q507.7463,400.3581 507.1213,400.3581 Q505.7775,400.3581 505.09,401.4363 Q504.4025,402.4988 504.4025,404.5925 Q504.4025,406.6863 505.09,407.7644 Q505.7775,408.8269 507.1213,408.8269 Q507.7463,408.8269 508.34,408.5613 Q508.9338,408.28 509.5588,407.7019 L509.5588,410.4206 Z " fill="#000000"/><text fill="#000000" font-family="sans-serif" font-size="14" lengthAdjust="spacing" textLength="76.8291" x="520.59" y="409.6267">Dispositivo</text><line style="stroke:#181818;stroke-width:0.5;" x1="492.59" x2="599.4191" y1="420.78" y2="420.78"/><text fill="#000000" font-family="sans-serif" font-size="14" lengthAdjust="spacing" textLength="54.332" x="497.59" y="437.7751">nombre</text><text fill="#000000" font-family="sans-serif" font-size="14" lengthAdjust="spacing" textLength="26.8311" x="497.59" y="454.072">tipo</text><line style="stroke:#181818;stroke-width:0.5;" x1="492.59" x2="599.4191" y1="461.3738" y2="461.3738"/></g><!--link Usuario to Suscripcion--><g id="link_Usuario_Suscripcion"><path codeLine="52" d="M150.99,121.93 C142.28,144.93 133.3863,168.4494 124.1963,192.6994 " fill="none" id="Usuario-to-Suscripcion" style="stroke:#181818;stroke-width:1.0;"/><polygon fill="#181818" points="122.07,198.31,128.9998,191.3116,123.8419,193.6345,121.519,188.4766,122.07,198.31" style="stroke:#181818;stroke-width:1.0;"/><text fill="#000000" font-family="sans-serif" font-size="13" lengthAdjust="spacing" textLength="49.3276" x="139" y="164.6569">compra</text></g><!--link Usuario to Perfil--><g id="link_Usuario_Perfil"><path codeLine="53" d="M189.24,121.93 C204.28,147.58 220.7449,175.6743 235.7749,201.3043 " fill="none" id="Usuario-to-Perfil" style="stroke:#181818;stroke-width:1.0;"/><polygon fill="#181818" points="238.81,206.48,237.7077,196.693,236.2807,202.1669,230.8068,200.7399,238.81,206.48" style="stroke:#181818;stroke-width:1.0;"/><text fill="#000000" font-family="sans-serif" font-size="13" lengthAdjust="spacing" textLength="28.4565" x="215" y="164.6569">crea</text></g><!--link Perfil to Configuracion--><g id="link_Perfil_Configuracion"><path codeLine="54" d="M225.57,287.55 C202.67,312.39 176.8263,340.4081 151.5263,367.8581 " fill="none" id="Perfil-to-Configuracion" style="stroke:#181818;stroke-width:1.0;"/><polygon fill="#181818" points="147.46,372.27,156.5008,368.363,150.8486,368.5934,150.6182,362.9413,147.46,372.27" style="stroke:#181818;stroke-width:1.0;"/><text fill="#000000" font-family="sans-serif" font-size="13" lengthAdjust="spacing" textLength="32.9443" x="189" y="338.5469">tiene</text></g><!--link Perfil to Contenido--><g id="link_Perfil_Contenido"><path codeLine="55" d="M258.17,287.72 C254.33,335.02 250.03,416.4 258,485.67 C260.95,511.35 265.7131,533.6223 271.6731,556.5923 " fill="none" id="Perfil-to-Contenido" style="stroke:#181818;stroke-width:1.0;"/><polygon fill="#181818" points="273.18,562.4,274.7914,552.6839,271.9242,557.5603,267.0478,554.6931,273.18,562.4" style="stroke:#181818;stroke-width:1.0;"/><text fill="#000000" font-family="sans-serif" font-size="13" lengthAdjust="spacing" textLength="38.3779" x="259" y="433.6469">busca</text></g><!--link Perfil to Historial--><g id="link_Perfil_Historial"><path codeLine="56" d="M289.21,287.55 C309.82,317.46 334.5968,353.4385 355.2368,383.4085 " fill="none" id="Perfil-to-Historial" style="stroke:#181818;stroke-width:1.0;"/><polygon fill="#181818" points="358.64,388.35,356.8296,378.669,355.804,384.2321,350.2409,383.2065,358.64,388.35" style="stroke:#181818;stroke-width:1.0;"/><text fill="#000000" font-family="sans-serif" font-size="13" lengthAdjust="spacing" textLength="32.9443" x="325" y="338.5469">tiene</text></g><!--link Perfil to Dispositivo--><g id="link_Perfil_Dispositivo"><path codeLine="57" d="M321.72,280.42 C364.89,304.47 424.14,338.8 474,372.48 C481.33,377.44 484.0929,379.2894 491.4429,384.7794 " fill="none" id="Perfil-to-Dispositivo" style="stroke:#181818;stroke-width:1.0;"/><polygon fill="#181818" points="496.25,388.37,491.4331,379.7794,492.2441,385.3779,486.6457,386.1888,496.25,388.37" style="stroke:#181818;stroke-width:1.0;"/><text fill="#000000" font-family="sans-serif" font-size="13" lengthAdjust="spacing" textLength="22.9785" x="423" y="338.5469">usa</text></g><!--link Contenido to Recomendacion--><g id="link_Contenido_Recomendacion"><path codeLine="58" d="M314.07,659.89 C332.13,691.77 352.4014,727.5702 368.1814,755.4102 " fill="none" id="Contenido-to-Recomendacion" style="stroke:#181818;stroke-width:1.0;"/><polygon fill="#181818" points="371.14,760.63,370.1819,750.8279,368.6745,756.2802,363.2222,754.7727,371.14,760.63" style="stroke:#181818;stroke-width:1.0;"/><text fill="#000000" font-family="sans-serif" font-size="13" lengthAdjust="spacing" textLength="60.9121" x="339" y="702.6269">aparecen</text></g><!--link Contenido to Categoria--><g id="link_Contenido_Categoria"><path codeLine="59" d="M264.95,659.91 C260.96,669.6 257.09,679.81 254,689.56 C249.27,704.5 246.484,715.1025 243.214,730.4025 " fill="none" id="Contenido-to-Categoria" style="stroke:#181818;stroke-width:1.0;"/><polygon fill="#181818" points="241.96,736.27,247.7527,728.3048,243.005,731.3804,239.9294,726.6327,241.96,736.27" style="stroke:#181818;stroke-width:1.0;"/><text fill="#000000" font-family="sans-serif" font-size="13" lengthAdjust="spacing" textLength="66.0728" x="255" y="702.6269">pertenece</text></g><!--link Historial to Contenido--><g id="link_Historial_Contenido"><path codeLine="60" d="M364.27,469.59 C349.25,496.92 332.0604,528.1621 316.1404,557.1221 " fill="none" id="Historial-to-Contenido" style="stroke:#181818;stroke-width:1.0;"/><polygon fill="#181818" points="313.25,562.38,321.0909,556.4201,315.6587,557.9984,314.0803,552.5662,313.25,562.38" style="stroke:#181818;stroke-width:1.0;"/><text fill="#000000" font-family="sans-serif" font-size="13" lengthAdjust="spacing" textLength="66.2251" x="337" y="528.7369">referencia</text></g><!--SRC=[TLFRJiCm37tdA_83-u4-84sR44zeOe9tBtMBHHj7TeeGQFzErfKclUMXKkoJusFxr8FzX1hD2uQgeM_p-s3YiGsecZVjG8Y7M1zd4UJiweA0eeC-TEs_6S6vKolaBR6Ra6Z0T8E6IYZ7k-lQ8wbdfK1VhEl49vIAcempa9_9ukO4WYv0iqvnO5THtGdCr559t4AImu4giZqATGnhTmaKkePrRwDEA5bd3ESHiLa_eAEIjxf0JygHQWoKWzWv7yQHcGC4h5a8ChgzepQzk9qdY0DHIktjxIH_56WtTlcAbbjqvNnUZjkBuF0cmp-JXfkUV4iLsWzufsYhXdwcohnmBQYyNZnpnAAqMOvl4FBlNxFRFKwyM4IBj5vWYHgC5G62z_GGwRDJpnIn83fSGmsRBSmbLbtofDbiSUGD5wRJEqTYxa7JbHG6V7IyHRU6JVueZ4U9gOZiWKdCGhrWXV4Vij4mrpy0]--></g></svg>