<svg xmlns="http://www.w3.org/2000/svg" xmlns:xlink="http://www.w3.org/1999/xlink" contentStyleType="text/css" height="926px" preserveAspectRatio="none" style="width:513px;height:926px;background:#FFFFFF;" version="1.1" viewBox="0 0 513 926" width="513px" zoomAndPan="magnify"><defs/><g><ellipse cx="157.63" cy="16" fill="#222222" rx="10" ry="10" style="stroke:#222222;stroke-width:1.0;"/><g id="CrearUsuario"><rect fill="#F1F1F1" height="50" rx="12.5" ry="12.5" style="stroke:#181818;stroke-width:0.5;" width="111.6836" x="43.79" y="103"/><line style="stroke:#181818;stroke-width:0.5;" x1="43.79" x2="155.4736" y1="129.2969" y2="129.2969"/><text fill="#000000" font-family="sans-serif" font-size="14" lengthAdjust="spacing" textLength="91.6836" x="53.79" y="120.9951">CrearUsuario</text></g><g id="ComprarSuscripcion"><rect fill="#F1F1F1" height="50" rx="12.5" ry="12.5" style="stroke:#181818;stroke-width:0.5;" width="161.2646" x="7" y="263"/><line style="stroke:#181818;stroke-width:0.5;" x1="7" x2="168.2646" y1="289.2969" y2="289.2969"/><text fill="#000000" font-family="sans-serif" font-size="14" lengthAdjust="spacing" textLength="141.2646" x="17" y="280.9951">ComprarSuscripcion</text></g><g id="ElegirPerfil"><rect fill="#F1F1F1" height="50" rx="12.5" ry="12.5" style="stroke:#181818;stroke-width:0.5;" width="95.4004" x="72.93" y="390"/><line style="stroke:#181818;stroke-width:0.5;" x1="72.93" x2="168.3304" y1="416.2969" y2="416.2969"/><text fill="#000000" font-family="sans-serif" font-size="14" lengthAdjust="spacing" textLength="75.4004" x="82.93" y="407.9951">ElegirPerfil</text></g><g id="SeleccionarContenido"><rect fill="#F1F1F1" height="50" rx="12.5" ry="12.5" style="stroke:#181818;stroke-width:0.5;" width="172.5918" x="104.34" y="517"/><line style="stroke:#181818;stroke-width:0.5;" x1="104.34" x2="276.9318" y1="543.2969" y2="543.2969"/><text fill="#000000" font-family="sans-serif" font-size="14" lengthAdjust="spacing" textLength="152.5918" x="114.34" y="534.9951">SeleccionarContenido</text></g><g id="Ver"><rect fill="#F1F1F1" height="50" rx="12.5" ry="12.5" style="stroke:#181818;stroke-width:0.5;" width="50" x="198.63" y="644"/><line style="stroke:#181818;stroke-width:0.5;" x1="198.63" x2="248.63" y1="670.2969" y2="670.2969"/><text fill="#000000" font-family="sans-serif" font-size="14" lengthAdjust="spacing" textLength="23.9463" x="211.6569" y="661.9951">Ver</text></g><g id="Recomendaciones"><rect fill="#F1F1F1" height="50" rx="12.5" ry="12.5" style="stroke:#181818;stroke-width:0.5;" width="148.126" x="215.57" y="771"/><line style="stroke:#181818;stroke-width:0.5;" x1="215.57" x2="363.696" y1="797.2969" y2="797.2969"/><text fill="#000000" font-family="sans-serif" font-size="14" lengthAdjust="spacing" textLength="128.126" x="225.57" y="788.9951">Recomendaciones</text></g><g id="Historial"><rect fill="#F1F1F1" height="50" rx="12.5" ry="12.5" style="stroke:#181818;stroke-width:0.5;" width="77.8799" x="89.69" y="771"/><line style="stroke:#181818;stroke-width:0.5;" x1="89.69" x2="167.5699" y1="797.2969" y2="797.2969"/><text fill="#000000" font-family="sans-serif" font-size="14" lengthAdjust="spacing" textLength="57.8799" x="99.69" y="788.9951">Historial</text></g><ellipse cx="48.63" cy="909" fill="none" rx="11" ry="11" style="stroke:#222222;stroke-width:1.0;"/><ellipse cx="48.63" cy="909" fill="#222222" rx="6" ry="6" style="stroke:#222222;stroke-width:1.0;"/><g id="ConfigurarPerfil"><rect fill="#F1F1F1" height="50" rx="12.5" ry="12.5" style="stroke:#181818;stroke-width:0.5;" width="129.4023" x="154.93" y="183"/><line style="stroke:#181818;stroke-width:0.5;" x1="154.93" x2="284.3323" y1="209.2969" y2="209.2969"/><text fill="#000000" font-family="sans-serif" font-size="14" lengthAdjust="spacing" textLength="109.4023" x="164.93" y="200.9951">ConfigurarPerfil</text></g><!--link *start* to CrearUsuario--><g id="link_*start*_CrearUsuario"><path d="M152.7,24.97 C147.91,32.78 140.54,45.07 134.63,56 C126.34,71.36 120.2569,83.5411 113.6169,97.3711 " fill="none" id="*start*-to-CrearUsuario" style="stroke:#181818;stroke-width:1.0;"/><polygon fill="#181818" points="111.02,102.78,118.5213,96.3979,113.1841,98.2726,111.3094,92.9354,111.02,102.78" style="stroke:#181818;stroke-width:1.0;"/><text fill="#000000" font-family="sans-serif" font-size="13" lengthAdjust="spacing" textLength="33.8013" x="135.63" y="69.0669">crear</text></g><!--link CrearUsuario to ComprarSuscripcion--><g id="link_CrearUsuario_ComprarSuscripcion"><path d="M89.68,153.31 C86.43,162.46 83.25,173.05 81.63,183 C77.23,210.14 79.2956,235.7741 82.4156,256.9541 " fill="none" id="CrearUsuario-to-ComprarSuscripcion" style="stroke:#181818;stroke-width:1.0;"/><polygon fill="#181818" points="83.29,262.89,85.9357,253.4031,82.5613,257.9434,78.0211,254.569,83.29,262.89" style="stroke:#181818;stroke-width:1.0;"/><text fill="#000000" font-family="sans-serif" font-size="13" lengthAdjust="spacing" textLength="54.6724" x="82.63" y="212.5669">comprar</text></g><!--link ComprarSuscripcion to ElegirPerfil--><g id="link_ComprarSuscripcion_ElegirPerfil"><path d="M94.07,313.4 C99.89,335.42 106.868,361.8589 112.678,383.8589 " fill="none" id="ComprarSuscripcion-to-ElegirPerfil" style="stroke:#181818;stroke-width:1.0;"/><polygon fill="#181818" points="114.21,389.66,115.7794,379.937,112.9333,384.8257,108.0446,381.9797,114.21,389.66" style="stroke:#181818;stroke-width:1.0;"/><text fill="#000000" font-family="sans-serif" font-size="13" lengthAdjust="spacing" textLength="55.0977" x="107.63" y="356.0669">suscribir</text></g><!--link ElegirPerfil to SeleccionarContenido--><g id="link_ElegirPerfil_SeleccionarContenido"><path d="M132.73,440.21 C139.77,454.04 148.95,471.63 157.63,487 C163.2,496.85 166.4774,502.415 172.1774,511.645 " fill="none" id="ElegirPerfil-to-SeleccionarContenido" style="stroke:#181818;stroke-width:1.0;"/><polygon fill="#181818" points="175.33,516.75,174.0044,506.9908,172.7028,512.4958,167.1978,511.1942,175.33,516.75" style="stroke:#181818;stroke-width:1.0;"/><text fill="#000000" font-family="sans-serif" font-size="13" lengthAdjust="spacing" textLength="36.8164" x="158.63" y="483.0669">elegir</text></g><!--link SeleccionarContenido to Ver--><g id="link_SeleccionarContenido_Ver"><path d="M197.07,567.4 C202.89,589.42 209.868,615.8589 215.678,637.8589 " fill="none" id="SeleccionarContenido-to-Ver" style="stroke:#181818;stroke-width:1.0;"/><polygon fill="#181818" points="217.21,643.66,218.7794,633.937,215.9333,638.8257,211.0446,635.9797,217.21,643.66" style="stroke:#181818;stroke-width:1.0;"/><text fill="#000000" font-family="sans-serif" font-size="13" lengthAdjust="spacing" textLength="21.0361" x="210.63" y="610.0669">ver</text></g><!--link Ver to Recomendaciones--><g id="link_Ver_Recomendaciones"><path d="M239.35,694.39 C245.03,703.54 251.34,714.12 256.63,724 C264.78,739.22 270.528,751.3294 276.708,765.1994 " fill="none" id="Ver-to-Recomendaciones" style="stroke:#181818;stroke-width:1.0;"/><polygon fill="#181818" points="279.15,770.68,279.1408,760.8311,277.115,766.1128,271.8333,764.0871,279.15,770.68" style="stroke:#181818;stroke-width:1.0;"/><text fill="#000000" font-family="sans-serif" font-size="13" lengthAdjust="spacing" textLength="51.7524" x="264.63" y="737.0669">finalizar</text></g><!--link Ver to Historial--><g id="link_Ver_Historial"><path d="M198.66,694.33 C190,703.3 180.5,713.78 172.63,724 C161.31,738.71 153.3229,751.2713 145.1529,765.3413 " fill="none" id="Ver-to-Historial" style="stroke:#181818;stroke-width:1.0;"/><polygon fill="#181818" points="142.14,770.53,150.1185,764.7556,144.6508,766.2061,143.2002,760.7384,142.14,770.53" style="stroke:#181818;stroke-width:1.0;"/><text fill="#000000" font-family="sans-serif" font-size="13" lengthAdjust="spacing" textLength="74.7817" x="173.63" y="737.0669">verHistorial</text></g><!--link Historial to SeleccionarContenido--><g id="link_Historial_SeleccionarContenido"><path d="M127.5,770.71 C126.75,740.45 127.6,687.44 139.63,644 C147.34,616.17 159.9097,592.1369 171.8597,572.3369 " fill="none" id="Historial-to-SeleccionarContenido" style="stroke:#181818;stroke-width:1.0;"/><polygon fill="#181818" points="174.96,567.2,166.8849,572.8385,172.3764,571.4808,173.7341,576.9723,174.96,567.2" style="stroke:#181818;stroke-width:1.0;"/><text fill="#000000" font-family="sans-serif" font-size="13" lengthAdjust="spacing" textLength="40.2949" x="140.63" y="673.5669">volver</text></g><!--link Recomendaciones to *end*--><g id="link_Recomendaciones_*end*"><path d="M236.45,821.5 C177.95,848.44 93.7393,887.219 64.0293,900.909 " fill="none" id="Recomendaciones-to-*end*" style="stroke:#181818;stroke-width:1.0;"/><polygon fill="#181818" points="58.58,903.42,68.428,903.2864,63.1211,901.3275,65.08,896.0207,58.58,903.42" style="stroke:#181818;stroke-width:1.0;"/><text fill="#000000" font-family="sans-serif" font-size="13" lengthAdjust="spacing" textLength="27.3076" x="170.63" y="864.0669">salir</text></g><!--link ConfigurarPerfil to SeleccionarContenido--><g id="link_ConfigurarPerfil_SeleccionarContenido"><path d="M218.65,233.24 C216.52,281.62 210.76,393.54 199.63,487 C198.48,496.72 197.8127,501.4478 196.2127,510.6978 " fill="none" id="ConfigurarPerfil-to-SeleccionarContenido" style="stroke:#181818;stroke-width:1.0;"/><polygon fill="#181818" points="195.19,516.61,200.6654,508.4235,196.0422,511.6832,192.7825,507.0599,195.19,516.61" style="stroke:#181818;stroke-width:1.0;"/><text fill="#000000" font-family="sans-serif" font-size="13" lengthAdjust="spacing" textLength="51.3652" x="213.63" y="356.0669">guardar</text></g><!--link *start* to ConfigurarPerfil--><g id="link_*start*_ConfigurarPerfil"><path d="M161.43,25.58 C164.83,33.43 169.85,45.38 173.63,56 C189.37,100.14 202.9968,146.9109 211.3768,176.9309 " fill="none" id="*start*-to-ConfigurarPerfil" style="stroke:#181818;stroke-width:1.0;"/><polygon fill="#181818" points="212.99,182.71,214.4229,172.9659,211.6457,177.8941,206.7175,175.1169,212.99,182.71" style="stroke:#181818;stroke-width:1.0;"/><text fill="#000000" font-family="sans-serif" font-size="13" lengthAdjust="spacing" textLength="324.873" x="180.63" y="69.0669">configurar perfil (idioma/notificaciones/subt&#237;tulos)</text></g><!--link ComprarSuscripcion to *end*--><g id="link_ComprarSuscripcion_*end*"><path d="M64.99,313.22 C45.21,336.99 19.63,375.21 19.63,414 C19.63,414 19.63,414 19.63,797 C19.63,835.64 33.9427,873.9382 42.0027,892.8982 " fill="none" id="ComprarSuscripcion-to-*end*" style="stroke:#181818;stroke-width:1.0;"/><polygon fill="#181818" points="44.35,898.42,44.5102,888.5724,42.3939,893.8185,37.1478,891.7022,44.35,898.42" style="stroke:#181818;stroke-width:1.0;"/><text fill="#000000" font-family="sans-serif" font-size="13" lengthAdjust="spacing" textLength="77.4287" x="20.63" y="610.0669">sin comprar</text></g><!--SRC=[XL4xRiCm3Drr2erjWI1xXYv1WOn5WtOnEZ0oRH1GH8EICkHEFKKlLjAE4oH8sqrw7_3niNdwz8l5iryBWhpd2aBiLpxOrrs1euhtWu1iQmv2Go1Effr0TuSqpql4dkGLfQEewZpIEn9tHPXoYn63-K3Md0ecQYqBZZftbpNR1ugg3YZENeQyeMR2r8B9CIlRKO98HxXeDfGB2q6SlEUlkn1_P3fmj86tWypHQAEwfewpIb97VTLM_b-prvfR3TZC5xdrMjCpv8S9Uw2MU0_Bn8Kw2gSSorntvVkhrCZvyRUxd79IcW_u0m00]--></g></svg>