<svg xmlns="http://www.w3.org/2000/svg" xmlns:xlink="http://www.w3.org/1999/xlink" contentStyleType="text/css" height="801px" preserveAspectRatio="none" style="width:1687px;height:801px;background:#FFFFFF;" version="1.1" viewBox="0 0 1687 801" width="1687px" zoomAndPan="magnify"><defs/><g><!--cluster Netflix--><g id="cluster_Netflix"><path d="M8.5,6 L62.123,6 A3.75,3.75 0 0 1 64.623,8.5 L71.623,28.2969 L1677.5,28.2969 A2.5,2.5 0 0 1 1680,30.7969 L1680,792.25 A2.5,2.5 0 0 1 1677.5,794.75 L8.5,794.75 A2.5,2.5 0 0 1 6,792.25 L6,8.5 A2.5,2.5 0 0 1 8.5,6 " fill="none" style="stroke:#000000;stroke-width:1.5;"/><line style="stroke:#000000;stroke-width:1.5;" x1="6" x2="71.623" y1="28.2969" y2="28.2969"/><text fill="#000000" font-family="sans-serif" font-size="14" font-weight="bold" lengthAdjust="spacing" textLength="52.623" x="10" y="20.9951">Netflix</text></g><g id="elem_Danii23"><rect fill="#F1F1F1" height="60.8906" style="stroke:#181818;stroke-width:0.5;" width="207.9248" x="395.04" y="41"/><text fill="#000000" font-family="sans-serif" font-size="14" lengthAdjust="spacing" textLength="53.8262" x="472.0893" y="55.9951">Danii23</text><line style="stroke:#181818;stroke-width:0.5;" x1="396.04" x2="601.9648" y1="61.2969" y2="61.2969"/><text fill="#000000" font-family="sans-serif" font-size="14" lengthAdjust="spacing" textLength="195.9248" x="401.04" y="78.292">correo = "dani@gmail.com"</text><text fill="#000000" font-family="sans-serif" font-size="14" lengthAdjust="spacing" textLength="156.3652" x="401.04" y="94.5889">contrasena = "12345"</text></g><g id="elem_Premium"><rect fill="#F1F1F1" height="77.1875" style="stroke:#181818;stroke-width:0.5;" width="157.0449" x="220.48" y="178.89"/><text fill="#000000" font-family="sans-serif" font-size="14" lengthAdjust="spacing" textLength="62.8496" x="267.5777" y="193.8851">Premium</text><line style="stroke:#181818;stroke-width:0.5;" x1="221.48" x2="376.5249" y1="199.1869" y2="199.1869"/><text fill="#000000" font-family="sans-serif" font-size="14" lengthAdjust="spacing" textLength="85.0117" x="226.48" y="216.182">coste = 20&#8364;</text><text fill="#000000" font-family="sans-serif" font-size="14" lengthAdjust="spacing" textLength="102.0059" x="226.48" y="232.4789">calidad = "4K"</text><text fill="#000000" font-family="sans-serif" font-size="14" lengthAdjust="spacing" textLength="145.0449" x="226.48" y="248.7757">numDispositivos = 6</text></g><g id="elem_Alberto"><rect fill="#F1F1F1" height="60.8906" style="stroke:#181818;stroke-width:0.5;" width="172.9932" x="412.5" y="187.04"/><text fill="#000000" font-family="sans-serif" font-size="14" lengthAdjust="spacing" textLength="50.7773" x="473.6079" y="202.0351">Alberto</text><line style="stroke:#181818;stroke-width:0.5;" x1="413.5" x2="584.4932" y1="207.3369" y2="207.3369"/><text fill="#000000" font-family="sans-serif" font-size="14" lengthAdjust="spacing" textLength="105.6221" x="418.5" y="224.332">tipo = "Adulto"</text><text fill="#000000" font-family="sans-serif" font-size="14" lengthAdjust="spacing" textLength="160.9932" x="418.5" y="240.6289">controlParental = false</text></g><g id="elem_Dani"><rect fill="#F1F1F1" height="60.8906" style="stroke:#181818;stroke-width:0.5;" width="168.4199" x="1048.79" y="187.04"/><text fill="#000000" font-family="sans-serif" font-size="14" lengthAdjust="spacing" textLength="32.1221" x="1116.9389" y="202.0351">Dani</text><line style="stroke:#181818;stroke-width:0.5;" x1="1049.79" x2="1216.2099" y1="207.3369" y2="207.3369"/><text fill="#000000" font-family="sans-serif" font-size="14" lengthAdjust="spacing" textLength="108.9922" x="1054.79" y="224.332">tipo = "Infantil"</text><text fill="#000000" font-family="sans-serif" font-size="14" lengthAdjust="spacing" textLength="156.4199" x="1054.79" y="240.6289">controlParental = true</text></g><g id="elem_Config_Alberto"><rect fill="#F1F1F1" height="93.4844" style="stroke:#181818;stroke-width:0.5;" width="204.7803" x="21.61" y="333.08"/><text fill="#000000" font-family="sans-serif" font-size="14" lengthAdjust="spacing" textLength="102.6963" x="72.652" y="348.0751">Config_Alberto</text><line style="stroke:#181818;stroke-width:0.5;" x1="22.61" x2="225.3903" y1="353.3769" y2="353.3769"/><text fill="#000000" font-family="sans-serif" font-size="14" lengthAdjust="spacing" textLength="135.8916" x="27.61" y="370.372">idioma = "Espa&#241;ol"</text><text fill="#000000" font-family="sans-serif" font-size="14" lengthAdjust="spacing" textLength="146.207" x="27.61" y="386.6689">notificaciones = true</text><text fill="#000000" font-family="sans-serif" font-size="14" lengthAdjust="spacing" textLength="186.1699" x="27.61" y="402.9657">subtitulosActivados = true</text><text fill="#000000" font-family="sans-serif" font-size="14" lengthAdjust="spacing" textLength="192.7803" x="27.61" y="419.2626">idiomaSubtitulos = "Ingles"</text></g><g id="elem_Config_Dani"><rect fill="#F1F1F1" height="93.4844" style="stroke:#181818;stroke-width:0.5;" width="221.5283" x="841.24" y="333.08"/><text fill="#000000" font-family="sans-serif" font-size="14" lengthAdjust="spacing" textLength="84.041" x="909.9837" y="348.0751">Config_Dani</text><line style="stroke:#181818;stroke-width:0.5;" x1="842.24" x2="1061.7683" y1="353.3769" y2="353.3769"/><text fill="#000000" font-family="sans-serif" font-size="14" lengthAdjust="spacing" textLength="122.6436" x="847.24" y="370.372">idioma = "Ingles"</text><text fill="#000000" font-family="sans-serif" font-size="14" lengthAdjust="spacing" textLength="150.7803" x="847.24" y="386.6689">notificaciones = false</text><text fill="#000000" font-family="sans-serif" font-size="14" lengthAdjust="spacing" textLength="190.7432" x="847.24" y="402.9657">subtitulosActivados = false</text><text fill="#000000" font-family="sans-serif" font-size="14" lengthAdjust="spacing" textLength="209.5283" x="847.24" y="419.2626">idiomaSubtitulos = "Ninguno"</text></g><g id="elem_Doraemon"><rect fill="#F1F1F1" height="77.1875" style="stroke:#181818;stroke-width:0.5;" width="126.2148" x="435.89" y="503.56"/><text fill="#000000" font-family="sans-serif" font-size="14" lengthAdjust="spacing" textLength="73.3701" x="462.3124" y="518.5551">Doraemon</text><line style="stroke:#181818;stroke-width:0.5;" x1="436.89" x2="561.1048" y1="523.8569" y2="523.8569"/><text fill="#000000" font-family="sans-serif" font-size="14" lengthAdjust="spacing" textLength="114.2148" x="441.89" y="540.852">tipo = "Pelicula"</text><text fill="#000000" font-family="sans-serif" font-size="14" lengthAdjust="spacing" textLength="84.2734" x="441.89" y="557.1489">episodio = -</text><text fill="#000000" font-family="sans-serif" font-size="14" lengthAdjust="spacing" textLength="108.4727" x="441.89" y="573.4457">duracion = 120</text></g><g id="elem_TheWitcher"><rect fill="#F1F1F1" height="77.1875" style="stroke:#181818;stroke-width:0.5;" width="111.5654" x="1077.22" y="503.56"/><text fill="#000000" font-family="sans-serif" font-size="14" lengthAdjust="spacing" textLength="80.1992" x="1092.9031" y="518.5551">TheWitcher</text><line style="stroke:#181818;stroke-width:0.5;" x1="1078.22" x2="1187.7854" y1="523.8569" y2="523.8569"/><text fill="#000000" font-family="sans-serif" font-size="14" lengthAdjust="spacing" textLength="96.0996" x="1083.22" y="540.852">tipo = "Serie"</text><text fill="#000000" font-family="sans-serif" font-size="14" lengthAdjust="spacing" textLength="88.1289" x="1083.22" y="557.1489">episodio = 8</text><text fill="#000000" font-family="sans-serif" font-size="14" lengthAdjust="spacing" textLength="99.5654" x="1083.22" y="573.4457">duracion = 40</text></g><g id="elem_Reco1"><rect fill="#F1F1F1" height="44.5938" style="stroke:#181818;stroke-width:0.5;" width="140.6797" x="324.66" y="695.95"/><text fill="#000000" font-family="sans-serif" font-size="14" lengthAdjust="spacing" textLength="43.5107" x="373.2445" y="710.9451">Reco1</text><line style="stroke:#181818;stroke-width:0.5;" x1="325.66" x2="464.3397" y1="716.2469" y2="716.2469"/><text fill="#000000" font-family="sans-serif" font-size="14" lengthAdjust="spacing" textLength="128.6797" x="330.66" y="733.242">nombre = "Brave"</text></g><g id="elem_Reco2"><rect fill="#F1F1F1" height="44.5938" style="stroke:#181818;stroke-width:0.5;" width="131.2461" x="500.38" y="695.95"/><text fill="#000000" font-family="sans-serif" font-size="14" lengthAdjust="spacing" textLength="43.5107" x="544.2477" y="710.9451">Reco2</text><line style="stroke:#181818;stroke-width:0.5;" x1="501.38" x2="630.6261" y1="716.2469" y2="716.2469"/><text fill="#000000" font-family="sans-serif" font-size="14" lengthAdjust="spacing" textLength="119.2461" x="506.38" y="733.242">nombre = "Cars"</text></g><g id="elem_Reco1_"><rect fill="#F1F1F1" height="44.5938" style="stroke:#181818;stroke-width:0.5;" width="151.2686" x="974.37" y="695.95"/><text fill="#000000" font-family="sans-serif" font-size="14" lengthAdjust="spacing" textLength="50.5107" x="1024.7489" y="710.9451">Reco1_</text><line style="stroke:#181818;stroke-width:0.5;" x1="975.37" x2="1124.6386" y1="716.2469" y2="716.2469"/><text fill="#000000" font-family="sans-serif" font-size="14" lengthAdjust="spacing" textLength="139.2686" x="980.37" y="733.242">nombre = "Society"</text></g><g id="elem_Reco2_"><rect fill="#F1F1F1" height="44.5938" style="stroke:#181818;stroke-width:0.5;" width="175.5977" x="1160.2" y="695.95"/><text fill="#000000" font-family="sans-serif" font-size="14" lengthAdjust="spacing" textLength="50.5107" x="1222.7435" y="710.9451">Reco2_</text><line style="stroke:#181818;stroke-width:0.5;" x1="1161.2" x2="1334.7977" y1="716.2469" y2="716.2469"/><text fill="#000000" font-family="sans-serif" font-size="14" lengthAdjust="spacing" textLength="163.5977" x="1166.2" y="733.242">nombre = "True Blood"</text></g><g id="elem_Historial_Doraemon"><rect fill="#F1F1F1" height="60.8906" style="stroke:#181818;stroke-width:0.5;" width="256.5078" x="370.75" y="349.37"/><text fill="#000000" font-family="sans-serif" font-size="14" lengthAdjust="spacing" textLength="138.25" x="429.8789" y="364.3651">Historial_Doraemon</text><line style="stroke:#181818;stroke-width:0.5;" x1="371.75" x2="626.2578" y1="369.6669" y2="369.6669"/><text fill="#000000" font-family="sans-serif" font-size="14" lengthAdjust="spacing" textLength="244.5078" x="376.75" y="386.662">fechaVisualizacion = "2024-11-14"</text><text fill="#000000" font-family="sans-serif" font-size="14" lengthAdjust="spacing" textLength="100.7686" x="376.75" y="402.9589">progreso = 90</text></g><g id="elem_Historial_Witcher"><rect fill="#F1F1F1" height="60.8906" style="stroke:#181818;stroke-width:0.5;" width="256.5078" x="1207.75" y="349.37"/><text fill="#000000" font-family="sans-serif" font-size="14" lengthAdjust="spacing" textLength="119.041" x="1276.4834" y="364.3651">Historial_Witcher</text><line style="stroke:#181818;stroke-width:0.5;" x1="1208.75" x2="1463.2578" y1="369.6669" y2="369.6669"/><text fill="#000000" font-family="sans-serif" font-size="14" lengthAdjust="spacing" textLength="244.5078" x="1213.75" y="386.662">fechaVisualizacion = "2024-11-15"</text><text fill="#000000" font-family="sans-serif" font-size="14" lengthAdjust="spacing" textLength="100.7686" x="1213.75" y="402.9589">progreso = 50</text></g><g id="elem_Tablet"><rect fill="#F1F1F1" height="60.8906" style="stroke:#181818;stroke-width:0.5;" width="143.8516" x="662.07" y="349.37"/><text fill="#000000" font-family="sans-serif" font-size="14" lengthAdjust="spacing" textLength="44.0098" x="711.9909" y="364.3651">Tablet</text><line style="stroke:#181818;stroke-width:0.5;" x1="663.07" x2="804.9216" y1="369.6669" y2="369.6669"/><text fill="#000000" font-family="sans-serif" font-size="14" lengthAdjust="spacing" textLength="131.8516" x="668.07" y="386.662">nombre = "Tablet"</text><text fill="#000000" font-family="sans-serif" font-size="14" lengthAdjust="spacing" textLength="97.0498" x="668.07" y="402.9589">tipo = "Movil"</text></g><g id="elem_TV"><rect fill="#F1F1F1" height="60.8906" style="stroke:#181818;stroke-width:0.5;" width="164.7695" x="1499.62" y="349.37"/><text fill="#000000" font-family="sans-serif" font-size="14" lengthAdjust="spacing" textLength="18.1289" x="1572.9403" y="364.3651">TV</text><line style="stroke:#181818;stroke-width:0.5;" x1="1500.62" x2="1663.3895" y1="369.6669" y2="369.6669"/><text fill="#000000" font-family="sans-serif" font-size="14" lengthAdjust="spacing" textLength="152.7695" x="1505.62" y="386.662">nombre = "Smart TV"</text><text fill="#000000" font-family="sans-serif" font-size="14" lengthAdjust="spacing" textLength="130.8057" x="1505.62" y="402.9589">tipo = "Television"</text></g><!--class Categoria--><g id="elem_Categoria"><rect codeLine="85" fill="#F1F1F1" height="113.1875" id="Categoria" rx="2.5" ry="2.5" style="stroke:#181818;stroke-width:0.5;" width="100.1338" x="733" y="661.75"/><ellipse cx="748" cy="677.75" fill="#EB937F" rx="11" ry="11" style="stroke:#181818;stroke-width:1.0;"/><path d="M752.1094,683.75 L744.3906,683.75 L744.3906,671.3594 L752.1094,671.3594 L752.1094,673.5156 L746.8438,673.5156 L746.8438,676.1875 L751.6094,676.1875 L751.6094,678.3438 L746.8438,678.3438 L746.8438,681.5938 L752.1094,681.5938 L752.1094,683.75 Z " fill="#000000"/><text fill="#000000" font-family="sans-serif" font-size="14" lengthAdjust="spacing" textLength="68.1338" x="762" y="682.5967">Categoria</text><line style="stroke:#181818;stroke-width:0.5;" x1="734" x2="832.1338" y1="693.75" y2="693.75"/><text fill="#000000" font-family="sans-serif" font-size="14" lengthAdjust="spacing" textLength="73.582" x="739" y="710.7451">Animacion</text><text fill="#000000" font-family="sans-serif" font-size="14" lengthAdjust="spacing" textLength="59.3359" x="739" y="727.042">Fantasia</text><text fill="#000000" font-family="sans-serif" font-size="14" lengthAdjust="spacing" textLength="46.2998" x="739" y="743.3389">Accion</text><text fill="#000000" font-family="sans-serif" font-size="14" lengthAdjust="spacing" textLength="47.332" x="739" y="759.6357">Drama</text><line style="stroke:#181818;stroke-width:0.5;" x1="734" x2="832.1338" y1="766.9375" y2="766.9375"/></g><!--link Danii23 to Premium--><g id="link_Danii23_Premium"><path codeLine="92" d="M457.56,102.29 C426.9,124.37 389.7585,151.1232 356.6885,174.9432 " fill="none" id="Danii23-to-Premium" style="stroke:#181818;stroke-width:1.0;"/><polygon fill="#181818" points="351.82,178.45,361.4606,176.4356,355.8771,175.5277,356.785,169.9442,351.82,178.45" style="stroke:#181818;stroke-width:1.0;"/><text fill="#000000" font-family="sans-serif" font-size="13" lengthAdjust="spacing" textLength="49.3276" x="411" y="144.9569">compra</text></g><!--link Danii23 to Alberto--><g id="link_Danii23_Alberto"><path codeLine="93" d="M499,102.29 C499,127.01 499,155.97 499,180.68 " fill="none" id="Danii23-to-Alberto" style="stroke:#181818;stroke-width:1.0;"/><polygon fill="#181818" points="499,186.68,503,177.68,499,181.68,495,177.68,499,186.68" style="stroke:#181818;stroke-width:1.0;"/><text fill="#000000" font-family="sans-serif" font-size="13" lengthAdjust="spacing" textLength="28.4565" x="500" y="144.9569">crea</text></g><!--link Danii23 to Dani--><g id="link_Danii23_Dani"><path codeLine="94" d="M603.34,96.15 C727.77,124.42 927.4891,169.7908 1042.5091,195.9208 " fill="none" id="Danii23-to-Dani" style="stroke:#181818;stroke-width:1.0;"/><polygon fill="#181818" points="1048.36,197.25,1040.4698,191.3556,1043.4842,196.1423,1038.6975,199.1568,1048.36,197.25" style="stroke:#181818;stroke-width:1.0;"/><text fill="#000000" font-family="sans-serif" font-size="13" lengthAdjust="spacing" textLength="28.4565" x="836" y="144.9569">crea</text></g><!--link Alberto to Config_Alberto--><g id="link_Alberto_Config_Alberto"><path codeLine="95" d="M419.88,248.37 C411.53,251.13 403.12,253.76 395,256.08 C332.96,273.75 312.01,260.03 253,286.08 C226.25,297.89 204.3025,312.1706 182.1825,329.1206 " fill="none" id="Alberto-to-Config_Alberto" style="stroke:#181818;stroke-width:1.0;"/><polygon fill="#181818" points="177.42,332.77,186.9968,330.4709,181.3888,329.7288,182.1309,324.1209,177.42,332.77" style="stroke:#181818;stroke-width:1.0;"/><text fill="#000000" font-family="sans-serif" font-size="13" lengthAdjust="spacing" textLength="32.9443" x="254" y="299.1469">tiene</text></g><!--link Dani to Config_Dani--><g id="link_Dani_Config_Dani"><path codeLine="96" d="M1099.38,248.27 C1072.59,271.99 1039.121,301.6412 1008.431,328.8312 " fill="none" id="Dani-to-Config_Dani" style="stroke:#181818;stroke-width:1.0;"/><polygon fill="#181818" points="1003.94,332.81,1013.329,329.8358,1007.6825,329.4943,1008.0239,323.8478,1003.94,332.81" style="stroke:#181818;stroke-width:1.0;"/><text fill="#000000" font-family="sans-serif" font-size="13" lengthAdjust="spacing" textLength="32.9443" x="1054" y="299.1469">tiene</text></g><!--link Alberto to Doraemon--><g id="link_Alberto_Doraemon"><path codeLine="97" d="M414.15,248.42 C376.04,266.6 334.82,294 313,333.08 C292.74,369.35 292.74,390.29 313,426.56 C338.98,473.09 386.9166,500.7885 429.8966,518.3685 " fill="none" id="Alberto-to-Doraemon" style="stroke:#181818;stroke-width:1.0;"/><polygon fill="#181818" points="435.45,520.64,428.6342,513.5305,430.8222,518.7471,425.6056,520.935,435.45,520.64" style="stroke:#181818;stroke-width:1.0;"/><text fill="#000000" font-family="sans-serif" font-size="13" lengthAdjust="spacing" textLength="38.3779" x="314" y="384.3869">busca</text></g><!--link Dani to TheWitcher--><g id="link_Dani_TheWitcher"><path codeLine="98" d="M1133,248.26 C1133,307.08 1133,432.08 1133,497.07 " fill="none" id="Dani-to-TheWitcher" style="stroke:#181818;stroke-width:1.0;"/><polygon fill="#181818" points="1133,503.07,1137,494.07,1133,498.07,1129,494.07,1133,503.07" style="stroke:#181818;stroke-width:1.0;"/><text fill="#000000" font-family="sans-serif" font-size="13" lengthAdjust="spacing" textLength="38.3779" x="1134" y="384.3869">busca</text></g><!--link Alberto to Historial_Doraemon--><g id="link_Alberto_Historial_Doraemon"><path codeLine="99" d="M499,248.27 C499,276.97 499,314.18 499,342.93 " fill="none" id="Alberto-to-Historial_Doraemon" style="stroke:#181818;stroke-width:1.0;"/><polygon fill="#181818" points="499,348.93,503,339.93,499,343.93,495,339.93,499,348.93" style="stroke:#181818;stroke-width:1.0;"/><text fill="#000000" font-family="sans-serif" font-size="13" lengthAdjust="spacing" textLength="32.9443" x="500" y="299.1469">tiene</text></g><!--link Dani to Historial_Witcher--><g id="link_Dani_Historial_Witcher"><path codeLine="100" d="M1170.71,248.27 C1207.05,276.97 1257.052,316.4605 1293.442,345.2105 " fill="none" id="Dani-to-Historial_Witcher" style="stroke:#181818;stroke-width:1.0;"/><polygon fill="#181818" points="1298.15,348.93,1293.5677,340.212,1294.2267,345.8304,1288.6083,346.4893,1298.15,348.93" style="stroke:#181818;stroke-width:1.0;"/><text fill="#000000" font-family="sans-serif" font-size="13" lengthAdjust="spacing" textLength="32.9443" x="1235" y="299.1469">tiene</text></g><!--link Alberto to Tablet--><g id="link_Alberto_Tablet"><path codeLine="101" d="M542.65,248.27 C584.73,276.97 643.094,316.798 685.224,345.548 " fill="none" id="Alberto-to-Tablet" style="stroke:#181818;stroke-width:1.0;"/><polygon fill="#181818" points="690.18,348.93,685.0007,340.553,686.05,346.1116,680.4913,347.161,690.18,348.93" style="stroke:#181818;stroke-width:1.0;"/><text fill="#000000" font-family="sans-serif" font-size="13" lengthAdjust="spacing" textLength="22.9785" x="617" y="299.1469">usa</text></g><!--link Dani to TV--><g id="link_Dani_TV"><path codeLine="102" d="M1217.5,243.33 C1288.76,264.97 1393.07,298.27 1482,333.08 C1494.27,337.88 1501.7145,340.9667 1514.0345,346.4867 " fill="none" id="Dani-to-TV" style="stroke:#181818;stroke-width:1.0;"/><polygon fill="#181818" points="1519.51,348.94,1512.9323,341.6097,1514.9471,346.8956,1509.6612,348.9104,1519.51,348.94" style="stroke:#181818;stroke-width:1.0;"/><text fill="#000000" font-family="sans-serif" font-size="13" lengthAdjust="spacing" textLength="22.9785" x="1397" y="299.1469">usa</text></g><!--link Doraemon to Reco1--><g id="link_Doraemon_Reco1"><path codeLine="103" d="M476.43,580.93 C455.52,615.93 428.2267,661.6289 411.0967,690.3089 " fill="none" id="Doraemon-to-Reco1" style="stroke:#181818;stroke-width:1.0;"/><polygon fill="#181818" points="408.02,695.46,416.0691,689.7844,410.5839,691.1674,409.2009,685.6822,408.02,695.46" style="stroke:#181818;stroke-width:1.0;"/><text fill="#000000" font-family="sans-serif" font-size="13" lengthAdjust="spacing" textLength="52.6729" x="457" y="623.8169">aparece</text></g><!--link Doraemon to Reco2--><g id="link_Doraemon_Reco2"><path codeLine="104" d="M513.54,580.93 C527.01,615.93 544.4263,661.1799 555.4563,689.8599 " fill="none" id="Doraemon-to-Reco2" style="stroke:#181818;stroke-width:1.0;"/><polygon fill="#181818" points="557.61,695.46,558.1128,685.624,555.8152,690.7932,550.646,688.4956,557.61,695.46" style="stroke:#181818;stroke-width:1.0;"/><text fill="#000000" font-family="sans-serif" font-size="13" lengthAdjust="spacing" textLength="52.6729" x="531" y="623.8169">aparece</text></g><!--link TheWitcher to Reco1_--><g id="link_TheWitcher_Reco1_"><path codeLine="105" d="M1114.99,580.93 C1098.3,615.93 1074.06,666.78 1060.39,695.46 " fill="none" id="TheWitcher-Reco1_" style="stroke:#181818;stroke-width:1.0;"/><text fill="#000000" font-family="sans-serif" font-size="13" lengthAdjust="spacing" textLength="52.6729" x="1099" y="623.8169">aparece</text></g><!--link TheWitcher to Reco2_--><g id="link_TheWitcher_Reco2_"><path codeLine="106" d="M1157.95,580.93 C1181.07,615.93 1214.66,666.78 1233.6,695.46 " fill="none" id="TheWitcher-Reco2_" style="stroke:#181818;stroke-width:1.0;"/><text fill="#000000" font-family="sans-serif" font-size="13" lengthAdjust="spacing" textLength="52.6729" x="1188" y="623.8169">aparece</text></g><!--link Doraemon to Categoria--><g id="link_Doraemon_Categoria"><path codeLine="107" d="M552.02,581.16 C619.1,629.07 720.59,705.25 726,705.25 " fill="none" id="Doraemon-to-Categoria" style="stroke:#181818;stroke-width:1.0;"/><polygon fill="#181818" points="732,705.25,723,701.25,727,705.25,723,709.25,732,705.25" style="stroke:#181818;stroke-width:1.0;"/><text fill="#000000" font-family="sans-serif" font-size="13" lengthAdjust="spacing" textLength="66.0728" x="613" y="623.8169">pertenece</text></g><!--link TheWitcher to Categoria--><g id="link_TheWitcher_Categoria"><path codeLine="108" d="M1076.82,575.6 C1057.78,586.67 1036.42,599.18 1017,610.75 C976.09,635.13 887.62,722.25 840,722.25 " fill="none" id="TheWitcher-to-Categoria" style="stroke:#181818;stroke-width:1.0;"/><polygon fill="#181818" points="834,722.25,843,726.25,839,722.25,843,718.25,834,722.25" style="stroke:#181818;stroke-width:1.0;"/><text fill="#000000" font-family="sans-serif" font-size="13" lengthAdjust="spacing" textLength="66.0728" x="1018" y="623.8169">pertenece</text></g><!--link Historial_Doraemon to Doraemon--><g id="link_Historial_Doraemon_Doraemon"><path codeLine="109" d="M499,410.6 C499,436.78 499,469 499,497.33 " fill="none" id="Historial_Doraemon-to-Doraemon" style="stroke:#181818;stroke-width:1.0;"/><polygon fill="#181818" points="499,503.33,503,494.33,499,498.33,495,494.33,499,503.33" style="stroke:#181818;stroke-width:1.0;"/><text fill="#000000" font-family="sans-serif" font-size="13" lengthAdjust="spacing" textLength="66.2251" x="500" y="469.6269">referencia</text></g><!--link Historial_Witcher to TheWitcher--><g id="link_Historial_Witcher_TheWitcher"><path codeLine="110" d="M1298.29,410.6 C1265.16,436.78 1221.4681,471.2806 1185.6081,499.6106 " fill="none" id="Historial_Witcher-to-TheWitcher" style="stroke:#181818;stroke-width:1.0;"/><polygon fill="#181818" points="1180.9,503.33,1190.4417,500.8895,1184.8234,500.2305,1185.4825,494.6121,1180.9,503.33" style="stroke:#181818;stroke-width:1.0;"/><text fill="#000000" font-family="sans-serif" font-size="13" lengthAdjust="spacing" textLength="66.2251" x="1235" y="469.6269">referencia</text></g><!--SRC=[XLNDZjCm4BxlKqIv1pNPBe988BfR40YnMj7LSgocpZGxuDYHxLJyY0lFmuLdu4ru4fosITnckfkZvvll-sOydjGWla29qJMwjQIlqO-po7zwzHc5Y-QWYBBp_M7x2MqCwkX551S-zggiWEGJeQiuG2XdmAA25fLcvzEBNV3dMKXzOx2YfZgWjWvzJZRvz-ltS0gI2YXQhkdxGKKrrPnihIqvscZhmqyPaPbSeN4w475KRztFYaOwVUHQonimg1n83rc3jCXmjZrX2D-fDIX7yY5APngEyKghDPNBiLagI5VRDhwsDVpzemDsfHsjIO0WhT26vErdcvKZrqXjPy8t20ezWkp85prmLqGfqSQdFMwBPns6gQo_eP-d3HvYE8VNfCf6QSxYN1l0IYlcScvGacWa3FQm9gizluyc_M7HcArVVvXc4qRYzXu_aHFtQ296PO66a9LunabCEOMFA7GQaYjThKpxBE9B0nkCJ-HaVCuL67ig9LsoAGij2Dstaq9yrgqVhUXIQbrmYM_9Ecq8v9Avf3MAUxWZs_YN_hrhJfnDiccIfaaw7JfQ6rqQj6r7dqyUb65kwH6P2rRcWfq2M4bqVCDtiNWq6n_qfjiDHsHtFD6Y0jD6nrItA753rXTmm8T-9KPNuB1iMn1mpXHLsthxapT-Ku4b623Y83utK478tVq7akHblxXpl-2gsi08qEqn3p0u3czNI13hu6tiQ1FclcPKs5E4c3tD00Xv-YdBerLZ1Hmo1AyuZ8S4pC2oPiOJTyhIVcZogB77Tkx2qqwkZUoMGHv1xVyX0db0TWG8gakIxg4_1icM3ydqKvNd_J1vVEsBywLof0SvtRYDKfWk7zsUmJNwtwVOp-gutQFx339-_WS0]--></g></svg>