<svg xmlns="http://www.w3.org/2000/svg" xmlns:xlink="http://www.w3.org/1999/xlink" contentStyleType="text/css" height="1430px" preserveAspectRatio="none" style="width:612px;height:1430px;background:#FFFFFF;" version="1.1" viewBox="0 0 612 1430" width="612px" zoomAndPan="magnify"><defs/><g><ellipse cx="302.92" cy="16" fill="#222222" rx="10" ry="10" style="stroke:#222222;stroke-width:1.0;"/><path d="M19.5,86 L586.3409,86 A12.5,12.5 0 0 1 598.8409,98.5 L598.8409,112.2969 L7,112.2969 L7,98.5 A12.5,12.5 0 0 1 19.5,86 " fill="#F1F1F1" style="stroke:#F1F1F1;stroke-width:1.0;"/><rect fill="none" height="1338.1838" rx="12.5" ry="12.5" style="stroke:#181818;stroke-width:0.5;" width="591.8409" x="7" y="86"/><line style="stroke:#181818;stroke-width:0.5;" x1="7" x2="598.8409" y1="112.2969" y2="112.2969"/><text fill="#000000" font-family="sans-serif" font-size="14" lengthAdjust="spacing" textLength="56.3896" x="274.7256" y="103.9951">Sistema</text><ellipse cx="304.42" cy="133.2969" fill="#222222" rx="10" ry="10" style="stroke:#222222;stroke-width:1.0;"/><path d="M225.79,180.2969 L383.0546,180.2969 A12.5,12.5 0 0 1 395.5546,192.7969 L395.5546,206.5938 L213.29,206.5938 L213.29,192.7969 A12.5,12.5 0 0 1 225.79,180.2969 " fill="#F1F1F1" style="stroke:#F1F1F1;stroke-width:1.0;"/><rect fill="none" height="332.2969" rx="12.5" ry="12.5" style="stroke:#181818;stroke-width:0.5;" width="182.2646" x="213.29" y="180.2969"/><line style="stroke:#181818;stroke-width:0.5;" x1="213.29" x2="395.5546" y1="206.5938" y2="206.5938"/><text fill="#000000" font-family="sans-serif" font-size="14" lengthAdjust="spacing" textLength="55.5078" x="276.6684" y="198.292">Inactivo</text><ellipse cx="305.92" cy="227.5938" fill="#222222" rx="10" ry="10" style="stroke:#222222;stroke-width:1.0;"/><g id="Sistema.Inactivo.CrearUsuario"><rect fill="#F1F1F1" height="50" rx="12.5" ry="12.5" style="stroke:#181818;stroke-width:0.5;" width="111.6836" x="250.08" y="274.5938"/><line style="stroke:#181818;stroke-width:0.5;" x1="250.08" x2="361.7636" y1="300.8906" y2="300.8906"/><text fill="#000000" font-family="sans-serif" font-size="14" lengthAdjust="spacing" textLength="91.6836" x="260.08" y="292.5889">CrearUsuario</text></g><g id="Sistema.Inactivo.ComprarSuscripcion"><rect fill="#F1F1F1" height="50" rx="12.5" ry="12.5" style="stroke:#181818;stroke-width:0.5;" width="161.2646" x="225.29" y="377.5938"/><line style="stroke:#181818;stroke-width:0.5;" x1="225.29" x2="386.5546" y1="403.8906" y2="403.8906"/><text fill="#000000" font-family="sans-serif" font-size="14" lengthAdjust="spacing" textLength="141.2646" x="235.29" y="395.5889">ComprarSuscripcion</text></g><ellipse cx="305.92" cy="491.5938" fill="none" rx="11" ry="11" style="stroke:#222222;stroke-width:1.0;"/><ellipse cx="305.92" cy="491.5938" fill="#222222" rx="6" ry="6" style="stroke:#222222;stroke-width:1.0;"/><!--link *start*Inactivo to CrearUsuario--><g id="link_*start*Inactivo_CrearUsuario"><path d="M305.92,238.0338 C305.92,247.2938 305.92,255.7838 305.92,268.2738 " fill="none" id="*start*Inactivo-to-CrearUsuario" style="stroke:#181818;stroke-width:1.0;"/><polygon fill="#181818" points="305.92,274.2738,309.92,265.2738,305.92,269.2738,301.92,265.2738,305.92,274.2738" style="stroke:#181818;stroke-width:1.0;"/></g><!--link CrearUsuario to ComprarSuscripcion--><g id="link_CrearUsuario_ComprarSuscripcion"><path d="M305.92,325.0438 C305.92,340.9238 305.92,355.5338 305.92,371.3738 " fill="none" id="CrearUsuario-to-ComprarSuscripcion" style="stroke:#181818;stroke-width:1.0;"/><polygon fill="#181818" points="305.92,377.3738,309.92,368.3738,305.92,372.3738,301.92,368.3738,305.92,377.3738" style="stroke:#181818;stroke-width:1.0;"/><text fill="#000000" font-family="sans-serif" font-size="13" lengthAdjust="spacing" textLength="54.6724" x="306.92" y="355.6606">comprar</text></g><!--link ComprarSuscripcion to *end*Inactivo--><g id="link_ComprarSuscripcion_*end*Inactivo"><path d="M305.92,427.8238 C305.92,445.1238 305.92,461.5138 305.92,474.3438 " fill="none" id="ComprarSuscripcion-to-*end*Inactivo" style="stroke:#181818;stroke-width:1.0;"/><polygon fill="#181818" points="305.92,480.3438,309.92,471.3438,305.92,475.3438,301.92,471.3438,305.92,480.3438" style="stroke:#181818;stroke-width:1.0;"/><text fill="#000000" font-family="sans-serif" font-size="13" lengthAdjust="spacing" textLength="77.4287" x="306.92" y="458.6606">sin comprar</text></g><path d="M31.5,565.5869 L577.3409,565.5869 A12.5,12.5 0 0 1 589.8409,578.0869 L589.8409,591.8838 L19,591.8838 L19,578.0869 A12.5,12.5 0 0 1 31.5,565.5869 " fill="#F1F1F1" style="stroke:#F1F1F1;stroke-width:1.0;"/><rect fill="none" height="848.5969" rx="12.5" ry="12.5" style="stroke:#181818;stroke-width:0.5;" width="570.8409" x="19" y="565.5869"/><line style="stroke:#181818;stroke-width:0.5;" x1="19" x2="589.8409" y1="591.8838" y2="591.8838"/><text fill="#000000" font-family="sans-serif" font-size="14" lengthAdjust="spacing" textLength="43.5039" x="282.6685" y="583.582">Activo</text><ellipse cx="329.4" cy="612.8838" fill="#222222" rx="10" ry="10" style="stroke:#222222;stroke-width:1.0;"/><g id="Sistema.Activo.ElegirPerfil"><rect fill="#F1F1F1" height="50" rx="12.5" ry="12.5" style="stroke:#181818;stroke-width:0.5;" width="95.4004" x="281.7" y="659.8838"/><line style="stroke:#181818;stroke-width:0.5;" x1="281.7" x2="377.1004" y1="686.1806" y2="686.1806"/><text fill="#000000" font-family="sans-serif" font-size="14" lengthAdjust="spacing" textLength="75.4004" x="291.7" y="677.8789">ElegirPerfil</text></g><path d="M43.5,762.8838 L393.3054,762.8838 A12.5,12.5 0 0 1 405.8054,775.3838 L405.8054,789.1806 L31,789.1806 L31,775.3838 A12.5,12.5 0 0 1 43.5,762.8838 " fill="#F1F1F1" style="stroke:#F1F1F1;stroke-width:1.0;"/><rect fill="none" height="257.2969" rx="12.5" ry="12.5" style="stroke:#181818;stroke-width:0.5;" width="374.8054" x="31" y="762.8838"/><line style="stroke:#181818;stroke-width:0.5;" x1="31" x2="405.8054" y1="789.1806" y2="789.1806"/><text fill="#000000" font-family="sans-serif" font-size="14" lengthAdjust="spacing" textLength="97.1523" x="169.8265" y="780.8789">Configuracion</text><ellipse cx="167.07" cy="810.1806" fill="#222222" rx="10" ry="10" style="stroke:#222222;stroke-width:1.0;"/><g id="Sistema.Activo.Configuracion.ConfiguracionGeneral"><rect fill="#F1F1F1" height="50" rx="12.5" ry="12.5" style="stroke:#181818;stroke-width:0.5;" width="172.3252" x="80.91" y="857.1806"/><line style="stroke:#181818;stroke-width:0.5;" x1="80.91" x2="253.2352" y1="883.4775" y2="883.4775"/><text fill="#000000" font-family="sans-serif" font-size="14" lengthAdjust="spacing" textLength="152.3252" x="90.91" y="875.1757">ConfiguracionGeneral</text></g><g id="Sistema.Activo.Configuracion.Subtitulos"><rect fill="#F1F1F1" height="50" rx="12.5" ry="12.5" style="stroke:#181818;stroke-width:0.5;" width="90.1367" x="43" y="960.1806"/><line style="stroke:#181818;stroke-width:0.5;" x1="43" x2="133.1367" y1="986.4775" y2="986.4775"/><text fill="#000000" font-family="sans-serif" font-size="14" lengthAdjust="spacing" textLength="70.1367" x="53" y="978.1757">Subtitulos</text></g><g id="Sistema.Activo.Configuracion.Notificaciones"><rect fill="#F1F1F1" height="50" rx="12.5" ry="12.5" style="stroke:#181818;stroke-width:0.5;" width="118.4443" x="187.85" y="960.1806"/><line style="stroke:#181818;stroke-width:0.5;" x1="187.85" x2="306.2943" y1="986.4775" y2="986.4775"/><text fill="#000000" font-family="sans-serif" font-size="14" lengthAdjust="spacing" textLength="98.4443" x="197.85" y="978.1757">Notificaciones</text></g><!--link *start*Configuracion to ConfiguracionGeneral--><g id="link_*start*Configuracion_ConfiguracionGeneral"><path d="M167.07,820.6206 C167.07,829.8806 167.07,838.3706 167.07,850.8606 " fill="none" id="*start*Configuracion-to-ConfiguracionGeneral" style="stroke:#181818;stroke-width:1.0;"/><polygon fill="#181818" points="167.07,856.8606,171.07,847.8606,167.07,851.8606,163.07,847.8606,167.07,856.8606" style="stroke:#181818;stroke-width:1.0;"/></g><!--link ConfiguracionGeneral to Subtitulos--><g id="link_ConfiguracionGeneral_Subtitulos"><path d="M105.34,907.6706 C98.92,912.5606 93.23,918.3506 89.07,925.1806 C82.84,935.4206 81.5463,942.6453 82.5763,953.9653 " fill="none" id="ConfiguracionGeneral-to-Subtitulos" style="stroke:#181818;stroke-width:1.0;"/><polygon fill="#181818" points="83.12,959.9406,86.288,950.6152,82.6669,954.9612,78.3209,951.3401,83.12,959.9406" style="stroke:#181818;stroke-width:1.0;"/><text fill="#000000" font-family="sans-serif" font-size="13" lengthAdjust="spacing" textLength="134.4561" x="90.07" y="938.2475">configurar subt&#237;tulos</text></g><!--link ConfiguracionGeneral to Notificaciones--><g id="link_ConfiguracionGeneral_Notificaciones"><path d="M207.28,907.4506 C213.84,912.7006 220.1,918.6506 225.07,925.1806 C232.81,935.3606 236.3315,942.818 239.7615,954.148 " fill="none" id="ConfiguracionGeneral-to-Notificaciones" style="stroke:#181818;stroke-width:1.0;"/><polygon fill="#181818" points="241.5,959.8906,242.7207,950.1177,240.0513,955.1051,235.0638,952.4357,241.5,959.8906" style="stroke:#181818;stroke-width:1.0;"/><text fill="#000000" font-family="sans-serif" font-size="13" lengthAdjust="spacing" textLength="160.7354" x="235.07" y="938.2475">configurar notificaciones</text></g><g id="Sistema.Activo.ElegirContenido"><rect fill="#F1F1F1" height="50" rx="12.5" ry="12.5" style="stroke:#181818;stroke-width:0.5;" width="131.4121" x="264.7" y="1073.1838"/><line style="stroke:#181818;stroke-width:0.5;" x1="264.7" x2="396.1121" y1="1099.4806" y2="1099.4806"/><text fill="#000000" font-family="sans-serif" font-size="14" lengthAdjust="spacing" textLength="111.4121" x="274.7" y="1091.1789">ElegirContenido</text></g><g id="Sistema.Activo.Ver"><rect fill="#F1F1F1" height="50" rx="12.5" ry="12.5" style="stroke:#181818;stroke-width:0.5;" width="50" x="252.4" y="1176.1838"/><line style="stroke:#181818;stroke-width:0.5;" x1="252.4" x2="302.4" y1="1202.4806" y2="1202.4806"/><text fill="#000000" font-family="sans-serif" font-size="14" lengthAdjust="spacing" textLength="23.9463" x="265.4269" y="1194.1789">Ver</text></g><g id="Sistema.Activo.Recomendaciones"><rect fill="#F1F1F1" height="50" rx="12.5" ry="12.5" style="stroke:#181818;stroke-width:0.5;" width="148.126" x="139.34" y="1279.1838"/><line style="stroke:#181818;stroke-width:0.5;" x1="139.34" x2="287.466" y1="1305.4806" y2="1305.4806"/><text fill="#000000" font-family="sans-serif" font-size="14" lengthAdjust="spacing" textLength="128.126" x="149.34" y="1297.1789">Recomendaciones</text></g><g id="Sistema.Activo.Historial"><rect fill="#F1F1F1" height="50" rx="12.5" ry="12.5" style="stroke:#181818;stroke-width:0.5;" width="77.8799" x="324.46" y="1279.1838"/><line style="stroke:#181818;stroke-width:0.5;" x1="324.46" x2="402.3399" y1="1305.4806" y2="1305.4806"/><text fill="#000000" font-family="sans-serif" font-size="14" lengthAdjust="spacing" textLength="57.8799" x="334.46" y="1297.1789">Historial</text></g><ellipse cx="213.4" cy="1393.1838" fill="none" rx="11" ry="11" style="stroke:#222222;stroke-width:1.0;"/><ellipse cx="213.4" cy="1393.1838" fill="#222222" rx="6" ry="6" style="stroke:#222222;stroke-width:1.0;"/><!--link *start*Activo to ElegirPerfil--><g id="link_*start*Activo_ElegirPerfil"><path d="M329.4,623.3238 C329.4,632.5838 329.4,641.0838 329.4,653.5738 " fill="none" id="*start*Activo-to-ElegirPerfil" style="stroke:#181818;stroke-width:1.0;"/><polygon fill="#181818" points="329.4,659.5738,333.4,650.5738,329.4,654.5738,325.4,650.5738,329.4,659.5738" style="stroke:#181818;stroke-width:1.0;"/></g><!--link ElegirPerfil to Configuracion--><g id="link_ElegirPerfil_Configuracion"><path d="M316.23,710.1638 C308.71,724.0338 301.4903,737.3394 290.6603,757.3094 " fill="none" id="ElegirPerfil-to-Configuracion" style="stroke:#181818;stroke-width:1.0;"/><polygon fill="#181818" points="287.8,762.5838,295.6067,756.5792,290.1836,758.1885,288.5743,752.7654,287.8,762.5838" style="stroke:#181818;stroke-width:1.0;"/><text fill="#000000" font-family="sans-serif" font-size="13" lengthAdjust="spacing" textLength="104.2031" x="307.4" y="740.9506">configurar perfil</text></g><!--link Configuracion to ElegirContenido--><g id="link_Configuracion_ElegirContenido"><path d="M288.38,1020.3938 C299.35,1040.4338 306.6716,1053.8093 314.2716,1067.7093 " fill="none" id="Configuracion-to-ElegirContenido" style="stroke:#181818;stroke-width:1.0;"/><polygon fill="#181818" points="317.15,1072.9738,316.342,1063.1581,314.7513,1068.5867,309.3227,1066.996,317.15,1072.9738" style="stroke:#181818;stroke-width:1.0;"/><text fill="#000000" font-family="sans-serif" font-size="13" lengthAdjust="spacing" textLength="51.3652" x="307.4" y="1051.2506">guardar</text></g><!--link ElegirPerfil to ElegirContenido--><g id="link_ElegirPerfil_ElegirContenido"><path d="M377.47,698.0338 C392.56,704.3538 407.58,713.8238 416.4,727.8838 C424.35,740.5538 542.49,731.8538 414.4,1020.1838 C404.93,1041.5138 391.1037,1055.8959 373.8137,1069.1359 " fill="none" id="ElegirPerfil-to-ElegirContenido" style="stroke:#181818;stroke-width:1.0;"/><polygon fill="#181818" points="369.05,1072.7838,378.6275,1070.4878,373.0198,1069.7439,373.7637,1064.1361,369.05,1072.7838" style="stroke:#181818;stroke-width:1.0;"/><text fill="#000000" font-family="sans-serif" font-size="13" lengthAdjust="spacing" textLength="105.4409" x="474.4" y="896.1006">elegir contenido</text></g><!--link ElegirContenido to Ver--><g id="link_ElegirContenido_Ver"><path d="M291.77,1123.6038 C286.39,1128.7337 281.61,1134.6138 278.4,1141.1838 C273.23,1151.7738 272.0998,1158.7678 272.8598,1169.8578 " fill="none" id="ElegirContenido-to-Ver" style="stroke:#181818;stroke-width:1.0;"/><polygon fill="#181818" points="273.27,1175.8438,276.6453,1166.5913,272.9282,1170.8554,268.664,1167.1383,273.27,1175.8438" style="stroke:#181818;stroke-width:1.0;"/><text fill="#000000" font-family="sans-serif" font-size="13" lengthAdjust="spacing" textLength="89.6606" x="279.4" y="1154.2506">ver contenido</text></g><!--link Ver to Recomendaciones--><g id="link_Ver_Recomendaciones"><path d="M251.95,1212.1038 C238.22,1218.9138 222.47,1229.4138 214.4,1244.1838 C208.71,1254.6138 207.4947,1261.7226 208.3847,1272.9226 " fill="none" id="Ver-to-Recomendaciones" style="stroke:#181818;stroke-width:1.0;"/><polygon fill="#181818" points="208.86,1278.9038,212.1345,1269.6152,208.4639,1273.9195,204.1596,1270.2489,208.86,1278.9038" style="stroke:#181818;stroke-width:1.0;"/><text fill="#000000" font-family="sans-serif" font-size="13" lengthAdjust="spacing" textLength="51.7524" x="215.4" y="1257.2506">finalizar</text></g><!--link Ver to Historial--><g id="link_Ver_Historial"><path d="M278.28,1226.4338 C279.75,1237.8838 283.08,1251.2038 290.4,1261.1838 C298.88,1272.7337 306.2501,1278.81 318.6801,1285.35 " fill="none" id="Ver-to-Historial" style="stroke:#181818;stroke-width:1.0;"/><polygon fill="#181818" points="323.99,1288.1438,317.8877,1280.4132,319.5651,1285.8156,314.1627,1287.493,323.99,1288.1438" style="stroke:#181818;stroke-width:1.0;"/><text fill="#000000" font-family="sans-serif" font-size="13" lengthAdjust="spacing" textLength="77.3779" x="291.4" y="1257.2506">ver historial</text></g><!--link Historial to ElegirContenido--><g id="link_Historial_ElegirContenido"><path d="M370.17,1278.8438 C377.94,1246.2337 387.46,1187.1638 369.4,1141.1838 C366.93,1134.8838 366.8577,1133.5859 362.4477,1128.2859 " fill="none" id="Historial-to-ElegirContenido" style="stroke:#181818;stroke-width:1.0;"/><polygon fill="#181818" points="358.61,1123.6738,361.2917,1133.1505,361.8081,1127.5172,367.4413,1128.0336,358.61,1123.6738" style="stroke:#181818;stroke-width:1.0;"/><text fill="#000000" font-family="sans-serif" font-size="13" lengthAdjust="spacing" textLength="40.2949" x="381.4" y="1205.7506">volver</text></g><!--link Recomendaciones to *end*Activo--><g id="link_Recomendaciones_*end*Activo"><path d="M213.4,1329.4138 C213.4,1346.7138 213.4,1363.1038 213.4,1375.9338 " fill="none" id="Recomendaciones-to-*end*Activo" style="stroke:#181818;stroke-width:1.0;"/><polygon fill="#181818" points="213.4,1381.9338,217.4,1372.9338,213.4,1376.9338,209.4,1372.9338,213.4,1381.9338" style="stroke:#181818;stroke-width:1.0;"/><text fill="#000000" font-family="sans-serif" font-size="13" lengthAdjust="spacing" textLength="27.3076" x="214.4" y="1360.2506">salir</text></g><!--link *start*Sistema to Inactivo--><g id="link_*start*Sistema_Inactivo"><path d="M304.42,143.6369 C304.42,151.7769 304.42,158.6869 304.42,174.1369 " fill="none" id="*start*Sistema-to-Inactivo" style="stroke:#181818;stroke-width:1.0;"/><polygon fill="#181818" points="304.42,180.1369,308.42,171.1369,304.42,175.1369,300.42,171.1369,304.42,180.1369" style="stroke:#181818;stroke-width:1.0;"/></g><!--link Inactivo to Activo--><g id="link_Inactivo_Activo"><path d="M304.42,513.0469 C304.42,529.7469 304.42,541.1969 304.42,559.1169 " fill="none" id="Inactivo-to-Activo" style="stroke:#181818;stroke-width:1.0;"/><polygon fill="#181818" points="304.42,565.1169,308.42,556.1169,304.42,560.1169,300.42,556.1169,304.42,565.1169" style="stroke:#181818;stroke-width:1.0;"/><text fill="#000000" font-family="sans-serif" font-size="13" lengthAdjust="spacing" textLength="136.1255" x="305.42" y="543.6538">suscribir completado</text></g><!--link *start* to Sistema--><g id="link_*start*_Sistema"><path d="M302.92,26.32 C302.92,37.48 302.92,52.19 302.92,79.75 " fill="none" id="*start*-to-Sistema" style="stroke:#181818;stroke-width:1.0;"/><polygon fill="#181818" points="302.92,85.75,306.92,76.75,302.92,80.75,298.92,76.75,302.92,85.75" style="stroke:#181818;stroke-width:1.0;"/></g><!--SRC=[ZPDBJiCm48RtFeNNIBr05qWLGi068IhOL2pSP596Skrex6G1of4u1HV3ZyInqrIYg_YVxv-7FJtSVF3DvfRlqLWu2yQC5HQc8_zctFqE8_IaH6MnrooeaPoq4StnEm91RwOJX3e5Sp5I-joIe7rdAiAsGgtubbTHd5sNaFVwIbjkK1M68VQNElFaBduwEAGu8WMB12lgOfxTjMdk9PoGNe0Qb2cOY-Cqgi5JHo8DCfw9jz6QlB5UQPZB5XUPCm-WW8Gim3KWFcjtj6WxgKtPYt7wxqy8_2_HixROO1LqM2HJHIpb6nXRJPlTfjCjAApzmvpSIjJk1Q_VxQK7Wk9xYTB2EwFU_WxaB3siyJxccLTmMm6gdkTiK0c9NzakJkoZ-uzeGdT1CUldT4xaJAottslfZ0bV5iystBKmxVRm1m00]--></g></svg>