<svg xmlns="http://www.w3.org/2000/svg" xmlns:xlink="http://www.w3.org/1999/xlink" contentStyleType="text/css" height="666px" preserveAspectRatio="none" style="width:340px;height:666px;background:#FFFFFF;" version="1.1" viewBox="0 0 340 666" width="340px" zoomAndPan="magnify"><defs/><g><!--cluster Netflix--><g id="cluster_Netflix"><path d="M8.5,6 L62.123,6 A3.75,3.75 0 0 1 64.623,8.5 L71.623,28.2969 L330.5,28.2969 A2.5,2.5 0 0 1 333,30.7969 L333,656.77 A2.5,2.5 0 0 1 330.5,659.27 L8.5,659.27 A2.5,2.5 0 0 1 6,656.77 L6,8.5 A2.5,2.5 0 0 1 8.5,6 " fill="none" style="stroke:#000000;stroke-width:1.5;"/><line style="stroke:#000000;stroke-width:1.5;" x1="6" x2="71.623" y1="28.2969" y2="28.2969"/><text fill="#000000" font-family="sans-serif" font-size="14" font-weight="bold" lengthAdjust="spacing" textLength="52.623" x="10" y="20.9951">Netflix</text></g><!--class Usuario--><g id="elem_Usuario"><rect codeLine="2" fill="#F1F1F1" height="80.5938" id="Usuario" rx="2.5" ry="2.5" style="stroke:#181818;stroke-width:0.5;" width="90.3193" x="102.84" y="41"/><ellipse cx="120.1419" cy="57" fill="#ADD1B2" rx="11" ry="11" style="stroke:#181818;stroke-width:1.0;"/><path d="M123.1106,62.6406 Q122.5325,62.9375 121.8919,63.0781 Q121.2512,63.2344 120.5481,63.2344 Q118.0481,63.2344 116.72,61.5938 Q115.4075,59.9375 115.4075,56.8125 Q115.4075,53.6875 116.72,52.0313 Q118.0481,50.375 120.5481,50.375 Q121.2512,50.375 121.8919,50.5313 Q122.5481,50.6875 123.1106,50.9844 L123.1106,53.7031 Q122.4856,53.125 121.8919,52.8594 Q121.2981,52.5781 120.6731,52.5781 Q119.3294,52.5781 118.6419,53.6563 Q117.9544,54.7188 117.9544,56.8125 Q117.9544,58.9063 118.6419,59.9844 Q119.3294,61.0469 120.6731,61.0469 Q121.2981,61.0469 121.8919,60.7813 Q122.4856,60.5 123.1106,59.9219 L123.1106,62.6406 Z " fill="#000000"/><text fill="#000000" font-family="sans-serif" font-size="14" lengthAdjust="spacing" textLength="53.2041" x="134.6534" y="61.8467">Usuario</text><line style="stroke:#181818;stroke-width:0.5;" x1="103.84" x2="192.1593" y1="73" y2="73"/><text fill="#000000" font-family="sans-serif" font-size="14" lengthAdjust="spacing" textLength="44.9531" x="108.84" y="89.9951">correo</text><text fill="#000000" font-family="sans-serif" font-size="14" lengthAdjust="spacing" textLength="78.3193" x="108.84" y="106.292">contrase&#241;a</text><line style="stroke:#181818;stroke-width:0.5;" x1="103.84" x2="192.1593" y1="113.5938" y2="113.5938"/></g><!--class Suscripcion--><g id="elem_Suscripcion"><rect codeLine="7" fill="#F1F1F1" height="96.8906" id="Suscripcion" rx="2.5" ry="2.5" style="stroke:#181818;stroke-width:0.5;" width="127.5068" x="22.25" y="198.6"/><ellipse cx="44.0892" cy="214.6" fill="#ADD1B2" rx="11" ry="11" style="stroke:#181818;stroke-width:1.0;"/><path d="M47.058,220.2406 Q46.4798,220.5375 45.8392,220.6781 Q45.1986,220.8344 44.4955,220.8344 Q41.9955,220.8344 40.6673,219.1937 Q39.3548,217.5375 39.3548,214.4125 Q39.3548,211.2875 40.6673,209.6312 Q41.9955,207.975 44.4955,207.975 Q45.1986,207.975 45.8392,208.1312 Q46.4955,208.2875 47.058,208.5844 L47.058,211.3031 Q46.433,210.725 45.8392,210.4594 Q45.2455,210.1781 44.6205,210.1781 Q43.2767,210.1781 42.5892,211.2562 Q41.9017,212.3187 41.9017,214.4125 Q41.9017,216.5062 42.5892,217.5844 Q43.2767,218.6469 44.6205,218.6469 Q45.2455,218.6469 45.8392,218.3812 Q46.433,218.1 47.058,217.5219 L47.058,220.2406 Z " fill="#000000"/><text fill="#000000" font-family="sans-serif" font-size="14" lengthAdjust="spacing" textLength="80.3086" x="59.609" y="219.4467">Suscripcion</text><line style="stroke:#181818;stroke-width:0.5;" x1="23.25" x2="148.7568" y1="230.6" y2="230.6"/><text fill="#000000" font-family="sans-serif" font-size="14" lengthAdjust="spacing" textLength="37.6592" x="28.25" y="247.5951">coste</text><text fill="#000000" font-family="sans-serif" font-size="14" lengthAdjust="spacing" textLength="50.4082" x="28.25" y="263.892">calidad</text><text fill="#000000" font-family="sans-serif" font-size="14" lengthAdjust="spacing" textLength="115.5068" x="28.25" y="280.1889">numDispositivos</text><line style="stroke:#181818;stroke-width:0.5;" x1="23.25" x2="148.7568" y1="287.4906" y2="287.4906"/></g><!--class Perfiles--><g id="elem_Perfiles"><rect codeLine="13" fill="#F1F1F1" height="80.5938" id="Perfiles" rx="2.5" ry="2.5" style="stroke:#181818;stroke-width:0.5;" width="119.0576" x="184.47" y="206.75"/><ellipse cx="215.5039" cy="222.75" fill="#ADD1B2" rx="11" ry="11" style="stroke:#181818;stroke-width:1.0;"/><path d="M218.4726,228.3906 Q217.8945,228.6875 217.2539,228.8281 Q216.6133,228.9844 215.9101,228.9844 Q213.4101,228.9844 212.082,227.3438 Q210.7695,225.6875 210.7695,222.5625 Q210.7695,219.4375 212.082,217.7813 Q213.4101,216.125 215.9101,216.125 Q216.6133,216.125 217.2539,216.2813 Q217.9101,216.4375 218.4726,216.7344 L218.4726,219.4531 Q217.8476,218.875 217.2539,218.6094 Q216.6601,218.3281 216.0351,218.3281 Q214.6914,218.3281 214.0039,219.4063 Q213.3164,220.4688 213.3164,222.5625 Q213.3164,224.6563 214.0039,225.7344 Q214.6914,226.7969 216.0351,226.7969 Q216.6601,226.7969 217.2539,226.5313 Q217.8476,226.25 218.4726,225.6719 L218.4726,228.3906 Z " fill="#000000"/><text fill="#000000" font-family="sans-serif" font-size="14" lengthAdjust="spacing" textLength="51.4268" x="233.067" y="227.5967">Perfiles</text><line style="stroke:#181818;stroke-width:0.5;" x1="185.47" x2="302.5276" y1="238.75" y2="238.75"/><text fill="#000000" font-family="sans-serif" font-size="14" lengthAdjust="spacing" textLength="26.8311" x="190.47" y="255.7451">tipo</text><text fill="#000000" font-family="sans-serif" font-size="14" lengthAdjust="spacing" textLength="107.0576" x="190.47" y="272.042">controlParental</text><line style="stroke:#181818;stroke-width:0.5;" x1="185.47" x2="302.5276" y1="279.3438" y2="279.3438"/></g><!--class Contenido--><g id="elem_Contenido"><rect codeLine="18" fill="#F1F1F1" height="96.8906" id="Contenido" rx="2.5" ry="2.5" style="stroke:#181818;stroke-width:0.5;" width="103.5313" x="185.23" y="372.49"/><ellipse cx="200.23" cy="388.49" fill="#ADD1B2" rx="11" ry="11" style="stroke:#181818;stroke-width:1.0;"/><path d="M203.1988,394.1306 Q202.6206,394.4275 201.98,394.5681 Q201.3394,394.7244 200.6363,394.7244 Q198.1363,394.7244 196.8081,393.0838 Q195.4956,391.4275 195.4956,388.3025 Q195.4956,385.1775 196.8081,383.5213 Q198.1363,381.865 200.6363,381.865 Q201.3394,381.865 201.98,382.0213 Q202.6363,382.1775 203.1988,382.4744 L203.1988,385.1931 Q202.5738,384.615 201.98,384.3494 Q201.3863,384.0681 200.7613,384.0681 Q199.4175,384.0681 198.73,385.1463 Q198.0425,386.2088 198.0425,388.3025 Q198.0425,390.3963 198.73,391.4744 Q199.4175,392.5369 200.7613,392.5369 Q201.3863,392.5369 201.98,392.2713 Q202.5738,391.99 203.1988,391.4119 L203.1988,394.1306 Z " fill="#000000"/><text fill="#000000" font-family="sans-serif" font-size="14" lengthAdjust="spacing" textLength="71.5313" x="214.23" y="393.3367">Contenido</text><line style="stroke:#181818;stroke-width:0.5;" x1="186.23" x2="287.7613" y1="404.49" y2="404.49"/><text fill="#000000" font-family="sans-serif" font-size="14" lengthAdjust="spacing" textLength="26.8311" x="191.23" y="421.4851">tipo</text><text fill="#000000" font-family="sans-serif" font-size="14" lengthAdjust="spacing" textLength="58.5908" x="191.23" y="437.782">episodio</text><text fill="#000000" font-family="sans-serif" font-size="14" lengthAdjust="spacing" textLength="61.1201" x="191.23" y="454.0789">duracion</text><line style="stroke:#181818;stroke-width:0.5;" x1="186.23" x2="287.7613" y1="461.3806" y2="461.3806"/></g><!--class Categoria--><g id="elem_Categoria"><rect codeLine="24" fill="#F1F1F1" height="96.8906" id="Categoria" rx="2.5" ry="2.5" style="stroke:#181818;stroke-width:0.5;" width="100.1338" x="21.93" y="546.38"/><ellipse cx="36.93" cy="562.38" fill="#EB937F" rx="11" ry="11" style="stroke:#181818;stroke-width:1.0;"/><path d="M41.0394,568.38 L33.3206,568.38 L33.3206,555.9894 L41.0394,555.9894 L41.0394,558.1456 L35.7738,558.1456 L35.7738,560.8175 L40.5394,560.8175 L40.5394,562.9738 L35.7738,562.9738 L35.7738,566.2238 L41.0394,566.2238 L41.0394,568.38 Z " fill="#000000"/><text fill="#000000" font-family="sans-serif" font-size="14" lengthAdjust="spacing" textLength="68.1338" x="50.93" y="567.2267">Categoria</text><line style="stroke:#181818;stroke-width:0.5;" x1="22.93" x2="121.0638" y1="578.38" y2="578.38"/><text fill="#000000" font-family="sans-serif" font-size="14" lengthAdjust="spacing" textLength="44.5908" x="27.93" y="595.3751">Anime</text><text fill="#000000" font-family="sans-serif" font-size="14" lengthAdjust="spacing" textLength="46.2998" x="27.93" y="611.672">Accion</text><text fill="#000000" font-family="sans-serif" font-size="14" lengthAdjust="spacing" textLength="47.332" x="27.93" y="627.9689">Drama</text><line style="stroke:#181818;stroke-width:0.5;" x1="22.93" x2="121.0638" y1="635.2706" y2="635.2706"/></g><!--class Recomendaciones--><g id="elem_Recomendaciones"><rect codeLine="30" fill="#F1F1F1" height="64.2969" id="Recomendaciones" rx="2.5" ry="2.5" style="stroke:#181818;stroke-width:0.5;" width="160.126" x="156.94" y="562.68"/><ellipse cx="171.94" cy="578.68" fill="#ADD1B2" rx="11" ry="11" style="stroke:#181818;stroke-width:1.0;"/><path d="M174.9088,584.3206 Q174.3306,584.6175 173.69,584.7581 Q173.0494,584.9144 172.3463,584.9144 Q169.8463,584.9144 168.5181,583.2738 Q167.2056,581.6175 167.2056,578.4925 Q167.2056,575.3675 168.5181,573.7113 Q169.8463,572.055 172.3463,572.055 Q173.0494,572.055 173.69,572.2113 Q174.3463,572.3675 174.9088,572.6644 L174.9088,575.3831 Q174.2838,574.805 173.69,574.5394 Q173.0963,574.2581 172.4713,574.2581 Q171.1275,574.2581 170.44,575.3363 Q169.7525,576.3988 169.7525,578.4925 Q169.7525,580.5863 170.44,581.6644 Q171.1275,582.7269 172.4713,582.7269 Q173.0963,582.7269 173.69,582.4613 Q174.2838,582.18 174.9088,581.6019 L174.9088,584.3206 Z " fill="#000000"/><text fill="#000000" font-family="sans-serif" font-size="14" lengthAdjust="spacing" textLength="128.126" x="185.94" y="583.5267">Recomendaciones</text><line style="stroke:#181818;stroke-width:0.5;" x1="157.94" x2="316.066" y1="594.68" y2="594.68"/><text fill="#000000" font-family="sans-serif" font-size="14" lengthAdjust="spacing" textLength="54.332" x="162.94" y="611.6751">nombre</text><line style="stroke:#181818;stroke-width:0.5;" x1="157.94" x2="316.066" y1="618.9769" y2="618.9769"/></g><!--link Usuario to Suscripcion--><g id="link_Usuario_Suscripcion"><path codeLine="34" d="M132.99,121.94 C124.28,144.94 115.3863,168.4494 106.1963,192.6994 " fill="none" id="Usuario-to-Suscripcion" style="stroke:#181818;stroke-width:1.0;"/><polygon fill="#181818" points="104.07,198.31,110.9998,191.3116,105.8419,193.6345,103.519,188.4766,104.07,198.31" style="stroke:#181818;stroke-width:1.0;"/><text fill="#000000" font-family="sans-serif" font-size="13" lengthAdjust="spacing" textLength="49.3276" x="121" y="164.6669">compra</text></g><!--link Usuario to Perfiles--><g id="link_Usuario_Perfiles"><path codeLine="35" d="M171.24,121.94 C186.28,147.59 202.7457,175.6738 217.7757,201.3138 " fill="none" id="Usuario-to-Perfiles" style="stroke:#181818;stroke-width:1.0;"/><polygon fill="#181818" points="220.81,206.49,219.7094,196.7028,218.2814,202.1765,212.8078,200.7485,220.81,206.49" style="stroke:#181818;stroke-width:1.0;"/><text fill="#000000" font-family="sans-serif" font-size="13" lengthAdjust="spacing" textLength="28.4565" x="197" y="164.6669">crea</text></g><!--link Perfiles to Contenido--><g id="link_Perfiles_Contenido"><path codeLine="36" d="M242.39,287.48 C241.37,312.65 240.2729,339.4549 239.1929,366.1149 " fill="none" id="Perfiles-to-Contenido" style="stroke:#181818;stroke-width:1.0;"/><polygon fill="#181818" points="238.95,372.11,243.311,363.2793,239.1524,367.1141,235.3176,362.9555,238.95,372.11" style="stroke:#181818;stroke-width:1.0;"/><text fill="#000000" font-family="sans-serif" font-size="13" lengthAdjust="spacing" textLength="46.6172" x="241" y="338.5569">buscan</text></g><!--link Contenido to Recomendaciones--><g id="link_Contenido_Recomendaciones"><path codeLine="37" d="M237,469.82 C237,499.32 237,530.32 237,556.2 " fill="none" id="Contenido-to-Recomendaciones" style="stroke:#181818;stroke-width:1.0;"/><polygon fill="#181818" points="237,562.2,241,553.2,237,557.2,233,553.2,237,562.2" style="stroke:#181818;stroke-width:1.0;"/><text fill="#000000" font-family="sans-serif" font-size="13" lengthAdjust="spacing" textLength="60.9121" x="238" y="512.4469">aparecen</text></g><!--link Contenido to Categoria--><g id="link_Contenido_Categoria"><path codeLine="38" d="M189.82,469.71 C180.25,479.49 170.27,489.74 161,499.38 C146.48,514.48 134.8741,526.7126 120.7441,541.7126 " fill="none" id="Contenido-to-Categoria" style="stroke:#181818;stroke-width:1.0;"/><polygon fill="#181818" points="116.63,546.08,125.7127,542.2716,120.0584,542.4405,119.8895,536.7862,116.63,546.08" style="stroke:#181818;stroke-width:1.0;"/><text fill="#000000" font-family="sans-serif" font-size="13" lengthAdjust="spacing" textLength="66.0728" x="162" y="512.4469">pertenece</text></g><!--SRC=[TP5HRi8m38RVEKKkm0NwC0d1yuGsxG0cCSXQ4aTsEasQEDJEmCL80sjQLlAGod_-VB7_9h2VS4BpYldewTlyh4nPreEg-T0UXFYkLPr5aCsaZbb0yV8BLJlNVO9uxzKA9KiSPnZDs2hmvC2DTUp3ZZInKgOlrcNm7kL87dL2pPHutXdxFGZ637uPiYqcZEJu6GKJAJjgWki5Xc4UULYQDbl8U68XQBHDfD0ctTZnxh1s0k59RczeEM1qzR7Pb973GV1-gtx-VfDPhrzcWNSbXP04_hl6z8f5y6OOjS7GakdCeI3XrdMJ1zDZavs1LFAsk6GUmocsX59EYd5rlW80]--></g></svg>