<svg xmlns="http://www.w3.org/2000/svg" xmlns:xlink="http://www.w3.org/1999/xlink" contentStyleType="text/css" height="598px" preserveAspectRatio="none" style="width:900px;height:598px;background:#FFFFFF;" version="1.1" viewBox="0 0 900 598" width="900px" zoomAndPan="magnify"><defs/><g><!--cluster Netflix--><g id="cluster_Netflix"><path d="M8.5,6 L62.123,6 A3.75,3.75 0 0 1 64.623,8.5 L71.623,28.2969 L890.5,28.2969 A2.5,2.5 0 0 1 893,30.7969 L893,588.77 A2.5,2.5 0 0 1 890.5,591.27 L8.5,591.27 A2.5,2.5 0 0 1 6,588.77 L6,8.5 A2.5,2.5 0 0 1 8.5,6 " fill="none" style="stroke:#000000;stroke-width:1.5;"/><line style="stroke:#000000;stroke-width:1.5;" x1="6" x2="71.623" y1="28.2969" y2="28.2969"/><text fill="#000000" font-family="sans-serif" font-size="14" font-weight="bold" lengthAdjust="spacing" textLength="52.623" x="10" y="20.9951">Netflix</text></g><g id="elem_Danii23"><rect fill="#F1F1F1" height="60.8906" style="stroke:#181818;stroke-width:0.5;" width="207.9248" x="233.04" y="41"/><text fill="#000000" font-family="sans-serif" font-size="14" lengthAdjust="spacing" textLength="53.8262" x="310.0893" y="55.9951">Danii23</text><line style="stroke:#181818;stroke-width:0.5;" x1="234.04" x2="439.9648" y1="61.2969" y2="61.2969"/><text fill="#000000" font-family="sans-serif" font-size="14" lengthAdjust="spacing" textLength="195.9248" x="239.04" y="78.292">correo = "dani@gmail.com"</text><text fill="#000000" font-family="sans-serif" font-size="14" lengthAdjust="spacing" textLength="156.3652" x="239.04" y="94.5889">contrasena = "12345"</text></g><g id="elem_Premium"><rect fill="#F1F1F1" height="77.1875" style="stroke:#181818;stroke-width:0.5;" width="157.0449" x="59.48" y="178.89"/><text fill="#000000" font-family="sans-serif" font-size="14" lengthAdjust="spacing" textLength="62.8496" x="106.5777" y="193.8851">Premium</text><line style="stroke:#181818;stroke-width:0.5;" x1="60.48" x2="215.5249" y1="199.1869" y2="199.1869"/><text fill="#000000" font-family="sans-serif" font-size="14" lengthAdjust="spacing" textLength="85.0117" x="65.48" y="216.182">coste = 20&#8364;</text><text fill="#000000" font-family="sans-serif" font-size="14" lengthAdjust="spacing" textLength="102.0059" x="65.48" y="232.4789">calidad = "4K"</text><text fill="#000000" font-family="sans-serif" font-size="14" lengthAdjust="spacing" textLength="145.0449" x="65.48" y="248.7757">numDispositivos = 6</text></g><g id="elem_Alberto"><rect fill="#F1F1F1" height="60.8906" style="stroke:#181818;stroke-width:0.5;" width="171.6055" x="251.2" y="187.04"/><text fill="#000000" font-family="sans-serif" font-size="14" lengthAdjust="spacing" textLength="50.7773" x="311.6141" y="202.0351">Alberto</text><line style="stroke:#181818;stroke-width:0.5;" x1="252.2" x2="421.8055" y1="207.3369" y2="207.3369"/><text fill="#000000" font-family="sans-serif" font-size="14" lengthAdjust="spacing" textLength="105.6221" x="257.2" y="224.332">tipo = "Adulto"</text><text fill="#000000" font-family="sans-serif" font-size="14" lengthAdjust="spacing" textLength="159.6055" x="257.2" y="240.6289">controlParental = "No"</text></g><g id="elem_Dani"><rect fill="#F1F1F1" height="60.8906" style="stroke:#181818;stroke-width:0.5;" width="165.3438" x="482.33" y="187.04"/><text fill="#000000" font-family="sans-serif" font-size="14" lengthAdjust="spacing" textLength="32.1221" x="548.9408" y="202.0351">Dani</text><line style="stroke:#181818;stroke-width:0.5;" x1="483.33" x2="646.6737" y1="207.3369" y2="207.3369"/><text fill="#000000" font-family="sans-serif" font-size="14" lengthAdjust="spacing" textLength="108.9922" x="488.33" y="224.332">tipo = "Infantil"</text><text fill="#000000" font-family="sans-serif" font-size="14" lengthAdjust="spacing" textLength="153.3438" x="488.33" y="240.6289">controlParental = "Si"</text></g><g id="elem_Doraemon"><rect fill="#F1F1F1" height="77.1875" style="stroke:#181818;stroke-width:0.5;" width="126.2148" x="219.89" y="333.08"/><text fill="#000000" font-family="sans-serif" font-size="14" lengthAdjust="spacing" textLength="73.3701" x="246.3124" y="348.0751">Doraemon</text><line style="stroke:#181818;stroke-width:0.5;" x1="220.89" x2="345.1048" y1="353.3769" y2="353.3769"/><text fill="#000000" font-family="sans-serif" font-size="14" lengthAdjust="spacing" textLength="114.2148" x="225.89" y="370.372">tipo = "Pelicula"</text><text fill="#000000" font-family="sans-serif" font-size="14" lengthAdjust="spacing" textLength="97.1523" x="225.89" y="386.6689">episodio = "-"</text><text fill="#000000" font-family="sans-serif" font-size="14" lengthAdjust="spacing" textLength="108.4727" x="225.89" y="402.9657">duracion = 120</text></g><g id="elem_TheWitcher"><rect fill="#F1F1F1" height="77.1875" style="stroke:#181818;stroke-width:0.5;" width="111.5654" x="526.22" y="333.08"/><text fill="#000000" font-family="sans-serif" font-size="14" lengthAdjust="spacing" textLength="80.1992" x="541.9031" y="348.0751">TheWitcher</text><line style="stroke:#181818;stroke-width:0.5;" x1="527.22" x2="636.7854" y1="353.3769" y2="353.3769"/><text fill="#000000" font-family="sans-serif" font-size="14" lengthAdjust="spacing" textLength="96.0996" x="532.22" y="370.372">tipo = "Serie"</text><text fill="#000000" font-family="sans-serif" font-size="14" lengthAdjust="spacing" textLength="88.1289" x="532.22" y="386.6689">episodio = 8</text><text fill="#000000" font-family="sans-serif" font-size="14" lengthAdjust="spacing" textLength="99.5654" x="532.22" y="402.9657">duracion = 40</text></g><g id="elem_Reco1"><rect fill="#F1F1F1" height="44.5938" style="stroke:#181818;stroke-width:0.5;" width="140.6797" x="21.66" y="508.97"/><text fill="#000000" font-family="sans-serif" font-size="14" lengthAdjust="spacing" textLength="43.5107" x="70.2445" y="523.9651">Reco1</text><line style="stroke:#181818;stroke-width:0.5;" x1="22.66" x2="161.3397" y1="529.2669" y2="529.2669"/><text fill="#000000" font-family="sans-serif" font-size="14" lengthAdjust="spacing" textLength="128.6797" x="27.66" y="546.262">nombre = "Brave"</text></g><g id="elem_Reco2"><rect fill="#F1F1F1" height="44.5938" style="stroke:#181818;stroke-width:0.5;" width="131.2461" x="197.38" y="508.97"/><text fill="#000000" font-family="sans-serif" font-size="14" lengthAdjust="spacing" textLength="43.5107" x="241.2477" y="523.9651">Reco2</text><line style="stroke:#181818;stroke-width:0.5;" x1="198.38" x2="327.6261" y1="529.2669" y2="529.2669"/><text fill="#000000" font-family="sans-serif" font-size="14" lengthAdjust="spacing" textLength="119.2461" x="203.38" y="546.262">nombre = "Cars"</text></g><g id="elem_Reco1_"><rect fill="#F1F1F1" height="44.5938" style="stroke:#181818;stroke-width:0.5;" width="151.2686" x="515.37" y="508.97"/><text fill="#000000" font-family="sans-serif" font-size="14" lengthAdjust="spacing" textLength="50.5107" x="565.7489" y="523.9651">Reco1_</text><line style="stroke:#181818;stroke-width:0.5;" x1="516.37" x2="665.6386" y1="529.2669" y2="529.2669"/><text fill="#000000" font-family="sans-serif" font-size="14" lengthAdjust="spacing" textLength="139.2686" x="521.37" y="546.262">nombre = "Society"</text></g><g id="elem_Reco2_"><rect fill="#F1F1F1" height="44.5938" style="stroke:#181818;stroke-width:0.5;" width="175.5977" x="701.2" y="508.97"/><text fill="#000000" font-family="sans-serif" font-size="14" lengthAdjust="spacing" textLength="50.5107" x="763.7435" y="523.9651">Reco2_</text><line style="stroke:#181818;stroke-width:0.5;" x1="702.2" x2="875.7977" y1="529.2669" y2="529.2669"/><text fill="#000000" font-family="sans-serif" font-size="14" lengthAdjust="spacing" textLength="163.5977" x="707.2" y="546.262">nombre = "True Blood"</text></g><!--class Categoria--><g id="elem_Categoria"><rect codeLine="52" fill="#F1F1F1" height="80.5938" id="Categoria" rx="2.5" ry="2.5" style="stroke:#181818;stroke-width:0.5;" width="100.1338" x="372" y="491.27"/><ellipse cx="387" cy="507.27" fill="#EB937F" rx="11" ry="11" style="stroke:#181818;stroke-width:1.0;"/><path d="M391.1094,513.27 L383.3906,513.27 L383.3906,500.8794 L391.1094,500.8794 L391.1094,503.0356 L385.8438,503.0356 L385.8438,505.7075 L390.6094,505.7075 L390.6094,507.8638 L385.8438,507.8638 L385.8438,511.1138 L391.1094,511.1138 L391.1094,513.27 Z " fill="#000000"/><text fill="#000000" font-family="sans-serif" font-size="14" lengthAdjust="spacing" textLength="68.1338" x="401" y="512.1167">Categoria</text><line style="stroke:#181818;stroke-width:0.5;" x1="373" x2="471.1338" y1="523.27" y2="523.27"/><text fill="#000000" font-family="sans-serif" font-size="14" lengthAdjust="spacing" textLength="73.582" x="378" y="540.2651">Animacion</text><text fill="#000000" font-family="sans-serif" font-size="14" lengthAdjust="spacing" textLength="59.3359" x="378" y="556.562">Fantasia</text><line style="stroke:#181818;stroke-width:0.5;" x1="373" x2="471.1338" y1="563.8638" y2="563.8638"/></g><!--link Danii23 to Premium--><g id="link_Danii23_Premium"><path codeLine="58" d="M295.77,102.29 C265.26,124.38 228.3205,151.112 195.4105,174.932 " fill="none" id="Danii23-to-Premium" style="stroke:#181818;stroke-width:1.0;"/><polygon fill="#181818" points="190.55,178.45,200.186,176.4134,194.6004,175.5184,195.4954,169.9328,190.55,178.45" style="stroke:#181818;stroke-width:1.0;"/><text fill="#000000" font-family="sans-serif" font-size="13" lengthAdjust="spacing" textLength="49.3276" x="250" y="144.9569">compra</text></g><!--link Danii23 to Alberto--><g id="link_Danii23_Alberto"><path codeLine="59" d="M337,102.29 C337,127.02 337,155.97 337,180.68 " fill="none" id="Danii23-to-Alberto" style="stroke:#181818;stroke-width:1.0;"/><polygon fill="#181818" points="337,186.68,341,177.68,337,181.68,333,177.68,337,186.68" style="stroke:#181818;stroke-width:1.0;"/><text fill="#000000" font-family="sans-serif" font-size="13" lengthAdjust="spacing" textLength="28.4565" x="338" y="144.9569">crea</text></g><!--link Danii23 to Dani--><g id="link_Danii23_Dani"><path codeLine="60" d="M384.24,102.29 C423.37,127.02 473.6376,158.7652 512.7476,183.4752 " fill="none" id="Danii23-to-Dani" style="stroke:#181818;stroke-width:1.0;"/><polygon fill="#181818" points="517.82,186.68,512.3479,178.4912,513.593,184.0093,508.0749,185.2544,517.82,186.68" style="stroke:#181818;stroke-width:1.0;"/><text fill="#000000" font-family="sans-serif" font-size="13" lengthAdjust="spacing" textLength="28.4565" x="458" y="144.9569">crea</text></g><!--link Alberto to Doraemon--><g id="link_Alberto_Doraemon"><path codeLine="61" d="M326.46,248.19 C317.9,272.33 307.7661,300.8753 298.4961,327.0053 " fill="none" id="Alberto-to-Doraemon" style="stroke:#181818;stroke-width:1.0;"/><polygon fill="#181818" points="296.49,332.66,303.2689,325.5153,298.1617,327.9478,295.7293,322.8406,296.49,332.66" style="stroke:#181818;stroke-width:1.0;"/><text fill="#000000" font-family="sans-serif" font-size="13" lengthAdjust="spacing" textLength="46.6172" x="312" y="299.1469">buscan</text></g><!--link Dani to TheWitcher--><g id="link_Dani_TheWitcher"><path codeLine="62" d="M568.32,248.19 C571.01,272.33 574.1637,300.5671 577.0837,326.6971 " fill="none" id="Dani-to-TheWitcher" style="stroke:#181818;stroke-width:1.0;"/><polygon fill="#181818" points="577.75,332.66,580.7257,323.2714,577.1947,327.6909,572.7752,324.1599,577.75,332.66" style="stroke:#181818;stroke-width:1.0;"/><text fill="#000000" font-family="sans-serif" font-size="13" lengthAdjust="spacing" textLength="46.6172" x="575" y="299.1469">buscan</text></g><!--link Doraemon to Reco1--><g id="link_Doraemon_Reco1"><path codeLine="63" d="M228.61,410.61 C215.73,420.03 202.2,430.29 190,440.27 C162.82,462.5 137.6919,485.8981 118.2419,504.6281 " fill="none" id="Doraemon-to-Reco1" style="stroke:#181818;stroke-width:1.0;"/><polygon fill="#181818" points="113.92,508.79,123.1774,505.4284,117.5216,505.3218,117.6282,499.6659,113.92,508.79" style="stroke:#181818;stroke-width:1.0;"/><text fill="#000000" font-family="sans-serif" font-size="13" lengthAdjust="spacing" textLength="60.9121" x="191" y="453.3369">aparecen</text></g><!--link Doraemon to Reco2--><g id="link_Doraemon_Reco2"><path codeLine="64" d="M269.07,410.46 C266.14,420.05 263.49,430.43 262,440.27 C258.48,463.44 258.9761,484.3772 260.3661,502.6972 " fill="none" id="Doraemon-to-Reco2" style="stroke:#181818;stroke-width:1.0;"/><polygon fill="#181818" points="260.82,508.68,264.1276,499.4032,260.4417,503.6943,256.1506,500.0084,260.82,508.68" style="stroke:#181818;stroke-width:1.0;"/><text fill="#000000" font-family="sans-serif" font-size="13" lengthAdjust="spacing" textLength="60.9121" x="263" y="453.3369">aparecen</text></g><!--link TheWitcher to Reco1_--><g id="link_TheWitcher_Reco1_"><path codeLine="65" d="M584.16,410.42 C585.91,441.2 587.9884,477.5797 589.4284,502.8297 " fill="none" id="TheWitcher-to-Reco1_" style="stroke:#181818;stroke-width:1.0;"/><polygon fill="#181818" points="589.77,508.82,593.2511,499.6069,589.4853,503.8281,585.2641,500.0623,589.77,508.82" style="stroke:#181818;stroke-width:1.0;"/><text fill="#000000" font-family="sans-serif" font-size="13" lengthAdjust="spacing" textLength="60.9121" x="587" y="453.3369">aparecen</text></g><!--link TheWitcher to Reco2_--><g id="link_TheWitcher_Reco2_"><path codeLine="66" d="M631.85,410.62 C672.16,441.32 722.7163,479.8053 755.8263,505.0153 " fill="none" id="TheWitcher-to-Reco2_" style="stroke:#181818;stroke-width:1.0;"/><polygon fill="#181818" points="760.6,508.65,755.8625,500.0154,756.6219,505.6211,751.0162,506.3804,760.6,508.65" style="stroke:#181818;stroke-width:1.0;"/><text fill="#000000" font-family="sans-serif" font-size="13" lengthAdjust="spacing" textLength="60.9121" x="692" y="453.3369">aparecen</text></g><!--link Doraemon to Categoria--><g id="link_Doraemon_Categoria"><path codeLine="67" d="M309.81,410.61 C316.09,420.11 322.53,430.41 328,440.27 C330.81,445.34 359.21,535.27 365,535.27 " fill="none" id="Doraemon-to-Categoria" style="stroke:#181818;stroke-width:1.0;"/><polygon fill="#181818" points="371,535.27,362,531.27,366,535.27,362,539.27,371,535.27" style="stroke:#181818;stroke-width:1.0;"/><text fill="#000000" font-family="sans-serif" font-size="13" lengthAdjust="spacing" textLength="66.0728" x="335" y="453.3369">pertenece</text></g><!--link TheWitcher to Categoria--><g id="link_TheWitcher_Categoria"><path codeLine="68" d="M533.83,410.63 C524.64,419.58 515.79,429.65 509,440.27 C495.03,462.12 504.93,551.27 479,551.27 " fill="none" id="TheWitcher-to-Categoria" style="stroke:#181818;stroke-width:1.0;"/><polygon fill="#181818" points="473,551.27,482,555.27,478,551.27,482,547.27,473,551.27" style="stroke:#181818;stroke-width:1.0;"/><text fill="#000000" font-family="sans-serif" font-size="13" lengthAdjust="spacing" textLength="66.0728" x="510" y="453.3369">pertenece</text></g><!--SRC=[ZLDVIoCn47_tKuI-L-nQvLZmkAe88aYnWezbcXtht2MPPPALEyIN-pptgUwJcDtURbDDvVAoCBz_oSni3Ve7h57TOdWqz5Ez7AXuUFKTTL2Nu8YAut_5zcWMGLPdQbH5xDlQ0fb3pNQKC5mGyEYWPKsAu-d91dmzIAtdWfOQksFj0qPDSVJtzvzj5GnLKBLUqvjjYcli9VcQFGLwPX_Xqqp8pAnG0YSXWUhkzhEgCO7VtPhD70HT0DDIRZbtxxOb6RzhzmWkaFdKSK5PHnP0ooxZEaT3kZ6mTSMQF5VKeUDjkMe4D4MFCpKfZZ8Xzq_uG44_eMHY5YY4sOmlkOHfBk0EDKyIRyTs9UquH-S2ppZQ8ocoaWiGlqynMMOb2zQ4uTVUdBpgNXfKvuQv6eJT5-D-gGi8k6OXIAGpHxRhmr2vYdC7Jx2Zxt-SyVZhiEbbN0bR2tmWz5iQ2O8VuMxZ4godTrY_EwLQDLw36zGTd4nzbz3BMj9cSgM2EgwgnZsCuZqZyHvSblz1AfQVPWrDBykXrr5GnoUZYvASRQBffx4ZUNq3]--></g></svg>