<svg xmlns="http://www.w3.org/2000/svg" xmlns:xlink="http://www.w3.org/1999/xlink" contentStyleType="text/css" height="893px" preserveAspectRatio="none" style="width:318px;height:893px;background:#FFFFFF;" version="1.1" viewBox="0 0 318 893" width="318px" zoomAndPan="magnify"><defs/><g><ellipse cx="181.3" cy="16" fill="#222222" rx="10" ry="10" style="stroke:#222222;stroke-width:1.0;"/><g id="CrearUsuario"><rect fill="#F1F1F1" height="50" rx="12.5" ry="12.5" style="stroke:#181818;stroke-width:0.5;" width="111.6836" x="125.45" y="103"/><line style="stroke:#181818;stroke-width:0.5;" x1="125.45" x2="237.1336" y1="129.2969" y2="129.2969"/><text fill="#000000" font-family="sans-serif" font-size="14" lengthAdjust="spacing" textLength="91.6836" x="135.45" y="120.9951">CrearUsuario</text></g><g id="ComprarSuscripcion"><rect fill="#F1F1F1" height="50" rx="12.5" ry="12.5" style="stroke:#181818;stroke-width:0.5;" width="161.2646" x="100.66" y="230"/><line style="stroke:#181818;stroke-width:0.5;" x1="100.66" x2="261.9246" y1="256.2969" y2="256.2969"/><text fill="#000000" font-family="sans-serif" font-size="14" lengthAdjust="spacing" textLength="141.2646" x="110.66" y="247.9951">ComprarSuscripcion</text></g><g id="ElegirPerfil"><rect fill="#F1F1F1" height="50" rx="12.5" ry="12.5" style="stroke:#181818;stroke-width:0.5;" width="95.4004" x="74.6" y="357"/><line style="stroke:#181818;stroke-width:0.5;" x1="74.6" x2="170.0004" y1="383.2969" y2="383.2969"/><text fill="#000000" font-family="sans-serif" font-size="14" lengthAdjust="spacing" textLength="75.4004" x="84.6" y="374.9951">ElegirPerfil</text></g><g id="SeleccionarContenido"><rect fill="#F1F1F1" height="50" rx="12.5" ry="12.5" style="stroke:#181818;stroke-width:0.5;" width="172.5918" x="7" y="484"/><line style="stroke:#181818;stroke-width:0.5;" x1="7" x2="179.5918" y1="510.2969" y2="510.2969"/><text fill="#000000" font-family="sans-serif" font-size="14" lengthAdjust="spacing" textLength="152.5918" x="17" y="501.9951">SeleccionarContenido</text></g><g id="Ver"><rect fill="#F1F1F1" height="50" rx="12.5" ry="12.5" style="stroke:#181818;stroke-width:0.5;" width="50" x="72.3" y="611"/><line style="stroke:#181818;stroke-width:0.5;" x1="72.3" x2="122.3" y1="637.2969" y2="637.2969"/><text fill="#000000" font-family="sans-serif" font-size="14" lengthAdjust="spacing" textLength="23.9463" x="85.3269" y="628.9951">Ver</text></g><g id="Recomendaciones"><rect fill="#F1F1F1" height="50" rx="12.5" ry="12.5" style="stroke:#181818;stroke-width:0.5;" width="148.126" x="30.23" y="738"/><line style="stroke:#181818;stroke-width:0.5;" x1="30.23" x2="178.356" y1="764.2969" y2="764.2969"/><text fill="#000000" font-family="sans-serif" font-size="14" lengthAdjust="spacing" textLength="128.126" x="40.23" y="755.9951">Recomendaciones</text></g><ellipse cx="168.3" cy="876" fill="none" rx="11" ry="11" style="stroke:#222222;stroke-width:1.0;"/><ellipse cx="168.3" cy="876" fill="#222222" rx="6" ry="6" style="stroke:#222222;stroke-width:1.0;"/><!--link *start* to CrearUsuario--><g id="link_*start*_CrearUsuario"><path d="M181.3,26.38 C181.3,43.11 181.3,72.59 181.3,96.63 " fill="none" id="*start*-to-CrearUsuario" style="stroke:#181818;stroke-width:1.0;"/><polygon fill="#181818" points="181.3,102.63,185.3,93.63,181.3,97.63,177.3,93.63,181.3,102.63" style="stroke:#181818;stroke-width:1.0;"/><text fill="#000000" font-family="sans-serif" font-size="13" lengthAdjust="spacing" textLength="33.8013" x="182.3" y="69.0669">crear</text></g><!--link CrearUsuario to ComprarSuscripcion--><g id="link_CrearUsuario_ComprarSuscripcion"><path d="M181.3,153.4 C181.3,175.42 181.3,201.66 181.3,223.66 " fill="none" id="CrearUsuario-to-ComprarSuscripcion" style="stroke:#181818;stroke-width:1.0;"/><polygon fill="#181818" points="181.3,229.66,185.3,220.66,181.3,224.66,177.3,220.66,181.3,229.66" style="stroke:#181818;stroke-width:1.0;"/><text fill="#000000" font-family="sans-serif" font-size="13" lengthAdjust="spacing" textLength="54.6724" x="182.3" y="196.0669">comprar</text></g><!--link ComprarSuscripcion to ElegirPerfil--><g id="link_ComprarSuscripcion_ElegirPerfil"><path d="M169.78,280.4 C159.38,302.42 146.7323,329.2346 136.3423,351.2346 " fill="none" id="ComprarSuscripcion-to-ElegirPerfil" style="stroke:#181818;stroke-width:1.0;"/><polygon fill="#181818" points="133.78,356.66,141.2403,350.2301,135.9152,352.1388,134.0065,346.8137,133.78,356.66" style="stroke:#181818;stroke-width:1.0;"/><text fill="#000000" font-family="sans-serif" font-size="13" lengthAdjust="spacing" textLength="46.1411" x="157.3" y="323.0669">suscrip</text></g><!--link ElegirPerfil to SeleccionarContenido--><g id="link_ElegirPerfil_SeleccionarContenido"><path d="M116.64,407.4 C111.53,429.42 105.4075,455.8156 100.2975,477.8156 " fill="none" id="ElegirPerfil-to-SeleccionarContenido" style="stroke:#181818;stroke-width:1.0;"/><polygon fill="#181818" points="98.94,483.66,104.8725,475.7984,100.0712,478.7897,97.08,473.9884,98.94,483.66" style="stroke:#181818;stroke-width:1.0;"/><text fill="#000000" font-family="sans-serif" font-size="13" lengthAdjust="spacing" textLength="36.8164" x="111.3" y="450.0669">elegir</text></g><!--link SeleccionarContenido to Ver--><g id="link_SeleccionarContenido_Ver"><path d="M94.08,534.4 C94.78,556.42 95.6165,582.6631 96.3265,604.6631 " fill="none" id="SeleccionarContenido-to-Ver" style="stroke:#181818;stroke-width:1.0;"/><polygon fill="#181818" points="96.52,610.66,100.2276,601.5357,96.3587,605.6626,92.2318,601.7937,96.52,610.66" style="stroke:#181818;stroke-width:1.0;"/><text fill="#000000" font-family="sans-serif" font-size="13" lengthAdjust="spacing" textLength="21.0361" x="97.3" y="577.0669">ver</text></g><!--link Ver to Recomendaciones--><g id="link_Ver_Recomendaciones"><path d="M98.66,661.4 C99.9,683.42 101.3651,709.6694 102.5951,731.6694 " fill="none" id="Ver-to-Recomendaciones" style="stroke:#181818;stroke-width:1.0;"/><polygon fill="#181818" points="102.93,737.66,106.4214,728.4507,102.6509,732.6678,98.4338,728.8973,102.93,737.66" style="stroke:#181818;stroke-width:1.0;"/><text fill="#000000" font-family="sans-serif" font-size="13" lengthAdjust="spacing" textLength="67.4629" x="102.3" y="704.0669">al finalizar</text></g><!--link Recomendaciones to *end*--><g id="link_Recomendaciones_*end*"><path d="M118.34,788.36 C132.47,812.87 150.5141,844.1515 160.1441,860.8615 " fill="none" id="Recomendaciones-to-*end*" style="stroke:#181818;stroke-width:1.0;"/><polygon fill="#181818" points="163.14,866.06,162.1118,856.265,160.6434,861.7279,155.1805,860.2595,163.14,866.06" style="stroke:#181818;stroke-width:1.0;"/><text fill="#000000" font-family="sans-serif" font-size="13" lengthAdjust="spacing" textLength="27.3076" x="145.3" y="831.0669">salir</text></g><!--link ComprarSuscripcion to *end*--><g id="link_ComprarSuscripcion_*end*"><path d="M197.71,280.19 C212.62,304.54 232.3,343.73 232.3,381 C232.3,381 232.3,381 232.3,764 C232.3,808.49 197.5377,847.0334 180.4477,863.6034 " fill="none" id="ComprarSuscripcion-to-*end*" style="stroke:#181818;stroke-width:1.0;"/><polygon fill="#181818" points="176.14,867.78,185.3859,864.3869,179.7297,864.2995,179.8171,858.6433,176.14,867.78" style="stroke:#181818;stroke-width:1.0;"/><text fill="#000000" font-family="sans-serif" font-size="13" lengthAdjust="spacing" textLength="77.4287" x="233.3" y="577.0669">sin comprar</text></g><!--SRC=[TP2n3i8m34JtV4LcfFu00ql5ZgXWgHYiz8eiXQHoQ0U-7hk5eQXizjqxwUnsT_DLTV2rWEHIHXBEVk-3hMubpbH-34BIZ2K83u5pCdOHtOPfcMF4dUK4wJagNHRRhMJZ6aG4Iv7KEJsHkBCcc3ctwLhi2b5gWZYRJ3b36o5rP3YAkXHzpuaYlxJchssHLh-WrPJuUyO7uVIzzmq0]--></g></svg>